<?xml version="1.0" encoding="utf-8"?>
<!-- Generator: Adobe Illustrator 20.1.0, SVG Export Plug-In . SVG Version: 6.00 Build 0)  -->
<svg version="1.1" id="Layer_1" xmlns="http://www.w3.org/2000/svg" xmlns:xlink="http://www.w3.org/1999/xlink" x="0px" y="0px"
	 viewBox="0 0 692 410" style="enable-background:new 0 0 692 410;" xml:space="preserve">
<style type="text/css">
	.st0{opacity:0;clip-path:url(#SVGID_2_);fill:#FFFFFF;}
	.st1{clip-path:url(#SVGID_2_);fill:#FFFFFF;}
	.st2{clip-path:url(#SVGID_2_);fill:none;stroke:#D9D9D8;stroke-linejoin:round;stroke-miterlimit:10;}
	.st3{clip-path:url(#SVGID_4_);fill:#FDC010;}
	.st4{clip-path:url(#SVGID_6_);fill:#71AD46;}
	.st5{clip-path:url(#SVGID_8_);fill:none;stroke:#D9D9D8;stroke-linejoin:round;stroke-miterlimit:10;}
	.st6{clip-path:url(#SVGID_8_);}
	.st7{fill:#414141;}
	.st8{font-family:'HelveticaNeue';}
	.st9{font-size:9px;}
	.st10{fill:#595A5A;}
	.st11{font-size:14px;}
	.st12{letter-spacing:-2;}
	.st13{clip-path:url(#SVGID_8_);fill:#FDC010;}
	.st14{clip-path:url(#SVGID_8_);fill:#71AD46;}
</style>
<g>
	<defs>
		<rect id="SVGID_1_" width="692" height="410"/>
	</defs>
	<clipPath id="SVGID_2_">
		<use xlink:href="#SVGID_1_"  style="overflow:visible;"/>
	</clipPath>
	<rect class="st0" width="692" height="410"/>
	<rect class="st1" width="692" height="410"/>
	<path class="st2" d="M679.5,40.5 M25.5,40.5 M679.5,83.5 M25.5,83.5 M679.5,125.5 M25.5,125.5 M679.5,168.5 M25.5,168.5
		 M679.5,210.5 M25.5,210.5 M679.5,253.5 M25.5,253.5 M679.5,296.5 M25.5,296.5"/>
</g>
<g>
	<defs>
		<polyline id="SVGID_3_" points="25,40 25,339 679,339 679,40 		"/>
	</defs>
	<clipPath id="SVGID_4_">
		<use xlink:href="#SVGID_3_"  style="overflow:visible;"/>
	</clipPath>
	<path class="st3" d="M646,185h10v154h-10V185z M603,245h9v94h-9V245z M559,245h10v94h-10V245z M515,177h10v162h-10V177z M472,151
		h10v188h-10V151z M428,168h10v171h-10V168z M385,211h9v128h-9V211z M341,126h10v213h-10V126z M297,237h10v102h-10V237z M254,109h10
		v230h-10V109z M210,151h10v188h-10V151z M167,143h9v196h-9V143z M123,117h10v222h-10V117z M79,168h10v171H79V168z M36,83h10v256H36
		V83z"/>
</g>
<g>
	<defs>
		<polyline id="SVGID_5_" points="25,40 25,339 679,339 679,40 		"/>
	</defs>
	<clipPath id="SVGID_6_">
		<use xlink:href="#SVGID_5_"  style="overflow:visible;"/>
	</clipPath>
	<path class="st4" d="M659,322h9v17h-9V322z M615,305h10v34h-10V305z M571,254h10v85h-10V254z M528,296h10v43h-10V296z M484,245h10
		v94h-10V245z M441,254h9v85h-9V254z M397,245h10v94h-10V245z M353,271h10v68h-10V271z M310,288h10v51h-10V288z M266,279h10v60h-10
		V279z M223,296h9v43h-9V296z M179,237h10v102h-10V237z M135,288h10v51h-10V288z M92,279h10v60H92V279z M48,271h10v68H48V271z"/>
</g>
<g>
	<defs>
		<rect id="SVGID_7_" width="788.2" height="467"/>
	</defs>
	<clipPath id="SVGID_8_">
		<use xlink:href="#SVGID_7_"  style="overflow:visible;"/>
	</clipPath>
	<line class="st5" x1="25.5" y1="338.5" x2="679.5" y2="338.5"/>
	<g class="st6">
		<text transform="matrix(1 0 0 1 35.4989 76.0367)" class="st7 st8 st9">30</text>
	</g>
	<g class="st6">
		<text transform="matrix(1 0 0 1 79.0916 161.18)" class="st7 st8 st9">20</text>
	</g>
	<g class="st6">
		<text transform="matrix(1 0 0 1 122.6843 110.094)" class="st7 st8 st9">26</text>
	</g>
	<g class="st6">
		<text transform="matrix(1 0 0 1 166.2771 135.637)" class="st7 st8 st9">23</text>
	</g>
	<g class="st6">
		<text transform="matrix(1 0 0 1 209.8698 144.1513)" class="st7 st8 st9">22</text>
	</g>
	<g class="st6">
		<text transform="matrix(1 0 0 1 253.4625 101.5797)" class="st7 st8 st9">27</text>
	</g>
	<g class="st6">
		<text transform="matrix(1 0 0 1 297.0552 229.2946)" class="st7 st8 st9">12</text>
	</g>
	<g class="st6">
		<text transform="matrix(1 0 0 1 340.6479 118.6083)" class="st7 st8 st9">25</text>
	</g>
	<g class="st6">
		<text transform="matrix(1 0 0 1 384.2407 203.7516)" class="st7 st8 st9">15</text>
	</g>
	<g class="st6">
		<text transform="matrix(1 0 0 1 427.8334 161.18)" class="st7 st8 st9">20</text>
	</g>
	<g class="st6">
		<text transform="matrix(1 0 0 1 471.4261 144.1513)" class="st7 st8 st9">22</text>
	</g>
	<g class="st6">
		<text transform="matrix(1 0 0 1 515.0189 169.6943)" class="st7 st8 st9">19</text>
	</g>
	<g class="st6">
		<text transform="matrix(1 0 0 1 558.6115 237.8089)" class="st7 st8 st9">11</text>
	</g>
	<g class="st6">
		<text transform="matrix(1 0 0 1 602.2043 237.8089)" class="st7 st8 st9">11</text>
	</g>
	<g class="st6">
		<text transform="matrix(1 0 0 1 645.7971 178.2086)" class="st7 st8 st9">18</text>
	</g>
	<g class="st6">
		<text transform="matrix(1 0 0 1 49.9146 263.3519)" class="st7 st8 st9">8</text>
	</g>
	<g class="st6">
		<text transform="matrix(1 0 0 1 93.5073 271.8663)" class="st7 st8 st9">7</text>
	</g>
	<g class="st6">
		<text transform="matrix(1 0 0 1 137.1 280.3806)" class="st7 st8 st9">6</text>
	</g>
	<g class="st6">
		<text transform="matrix(1 0 0 1 178.6902 229.2946)" class="st7 st8 st9">12</text>
	</g>
	<g class="st6">
		<text transform="matrix(1 0 0 1 224.2855 288.8949)" class="st7 st8 st9">5</text>
	</g>
	<g class="st6">
		<text transform="matrix(1 0 0 1 267.8782 271.8663)" class="st7 st8 st9">7</text>
	</g>
	<g class="st6">
		<text transform="matrix(1 0 0 1 311.4709 280.3806)" class="st7 st8 st9">6</text>
	</g>
	<g class="st6">
		<text transform="matrix(1 0 0 1 355.0637 263.3519)" class="st7 st8 st9">8</text>
	</g>
	<g class="st6">
		<text transform="matrix(1 0 0 1 396.6538 237.8089)" class="st7 st8 st9">11</text>
	</g>
	<g class="st6">
		<text transform="matrix(1 0 0 1 440.2466 246.3233)" class="st7 st8 st9">10</text>
	</g>
	<g class="st6">
		<text transform="matrix(1 0 0 1 483.8393 237.8089)" class="st7 st8 st9">11</text>
	</g>
	<g class="st6">
		<text transform="matrix(1 0 0 1 529.4345 288.8949)" class="st7 st8 st9">5</text>
	</g>
	<g class="st6">
		<text transform="matrix(1 0 0 1 571.0248 246.3233)" class="st7 st8 st9">10</text>
	</g>
	<g class="st6">
		<text transform="matrix(1 0 0 1 616.6199 297.4092)" class="st7 st8 st9">4</text>
	</g>
	<g class="st6">
		<text transform="matrix(1 0 0 1 660.2127 314.4379)" class="st7 st8 st9">2</text>
	</g>
	<g class="st6">
		<text transform="matrix(1 0 0 1 11.51 342.3341)" class="st10 st8 st9">0</text>
	</g>
	<g class="st6">
		<text transform="matrix(1 0 0 1 11.51 299.7625)" class="st10 st8 st9">5</text>
	</g>
	<g class="st6">
		<text transform="matrix(1 0 0 1 7.005 257.1908)" class="st10 st8 st9">10</text>
	</g>
	<g class="st6">
		<text transform="matrix(1 0 0 1 7.005 214.6192)" class="st10 st8 st9">15</text>
	</g>
	<g class="st6">
		<text transform="matrix(1 0 0 1 7.005 172.0475)" class="st10 st8 st9">20</text>
	</g>
	<g class="st6">
		<text transform="matrix(1 0 0 1 7.005 129.4759)" class="st10 st8 st9">25</text>
	</g>
	<g class="st6">
		<text transform="matrix(1 0 0 1 7.005 86.9042)" class="st10 st8 st9">30</text>
	</g>
	<g class="st6">
		<text transform="matrix(1 0 0 1 7.005 44.3326)" class="st10 st8 st9">35</text>
	</g>
	<g class="st6">
		<text transform="matrix(1 0 0 1 36.108 353.4148)"><tspan x="0" y="0" class="st10 st8 st9">D</tspan><tspan x="6" y="0" class="st10 st8 st9">r</tspan><tspan x="9" y="0" class="st10 st8 st9">e</tspan><tspan x="14" y="0" class="st10 st8 st9">w</tspan><tspan x="21" y="0" class="st10 st8 st9"> </tspan></text>
	</g>
	<g class="st6">
		<text transform="matrix(1 0 0 1 26.108 364.4148)"><tspan x="0" y="0" class="st10 st8 st9">B</tspan><tspan x="6" y="0" class="st10 st8 st9">r</tspan><tspan x="9" y="0" class="st10 st8 st9">ee</tspan><tspan x="19" y="0" class="st10 st8 st9">s,</tspan><tspan x="27" y="0" class="st10 st8 st9"> </tspan><tspan x="29" y="0" class="st10 st8 st9">Q</tspan><tspan x="36" y="0" class="st10 st8 st9">B</tspan></text>
	</g>
	<g class="st6">
		<text transform="matrix(1 0 0 1 82.7007 353.4149)"><tspan x="0" y="0" class="st10 st8 st9">Kir</tspan><tspan x="11" y="0" class="st10 st8 st9">k</tspan><tspan x="16" y="0" class="st10 st8 st9"> </tspan></text>
	</g>
	<g class="st6">
		<text transform="matrix(1 0 0 1 72.7007 364.4149)"><tspan x="0" y="0" class="st10 st8 st9">C</tspan><tspan x="6" y="0" class="st10 st8 st9">o</tspan><tspan x="11" y="0" class="st10 st8 st9">u</tspan><tspan x="16" y="0" class="st10 st8 st9">s</tspan><tspan x="21" y="0" class="st10 st8 st9">in</tspan><tspan x="28" y="0" class="st10 st8 st9">s,</tspan><tspan x="36" y="0" class="st10 st8 st9"> </tspan></text>
	</g>
	<g class="st6">
		<text transform="matrix(1 0 0 1 83.7007 374.4149)"><tspan x="0" y="0" class="st10 st8 st9">Q</tspan><tspan x="7" y="0" class="st10 st8 st9">B</tspan></text>
	</g>
	<g class="st6">
		<text transform="matrix(1 0 0 1 124.296 353.4148)"><tspan x="0" y="0" class="st10 st8 st9">M</tspan><tspan x="8" y="0" class="st10 st8 st9">a</tspan><tspan x="13" y="0" class="st10 st8 st9">tt</tspan><tspan x="19" y="0" class="st10 st8 st9"> </tspan></text>
	</g>
	<g class="st6">
		<text transform="matrix(1 0 0 1 114.296 364.4148)"><tspan x="0" y="0" class="st10 st8 st9">R</tspan><tspan x="6" y="0" class="st10 st8 st9">y</tspan><tspan x="11" y="0" class="st10 st8 st9">a</tspan><tspan x="16" y="0" class="st10 st8 st9">n</tspan><tspan x="21" y="0" class="st10 st8 st9">,</tspan><tspan x="24" y="0" class="st10 st8 st9"> </tspan><tspan x="26" y="0" class="st10 st8 st9">Q</tspan><tspan x="33" y="0" class="st10 st8 st9">B</tspan></text>
	</g>
	<g class="st6">
		<text transform="matrix(1 0 0 1 166.8887 353.4148)"><tspan x="0" y="0" class="st10 st8 st9">P</tspan><tspan x="6" y="0" class="st10 st8 st9">hili</tspan><tspan x="17" y="0" class="st10 st8 st9">p</tspan><tspan x="22" y="0" class="st10 st8 st9"> </tspan></text>
	</g>
	<g class="st6">
		<text transform="matrix(1 0 0 1 155.8887 364.4148)"><tspan x="0" y="0" class="st10 st8 st9">R</tspan><tspan x="6" y="0" class="st10 st8 st9">i</tspan><tspan x="8" y="0" class="st10 st8 st9">v</tspan><tspan x="13" y="0" class="st10 st8 st9">e</tspan><tspan x="18" y="0" class="st10 st8 st9">r</tspan><tspan x="21" y="0" class="st10 st8 st9">s,</tspan><tspan x="29" y="0" class="st10 st8 st9"> </tspan><tspan x="31" y="0" class="st10 st8 st9">Q</tspan><tspan x="38" y="0" class="st10 st8 st9">B</tspan></text>
	</g>
	<g class="st6">
		<text transform="matrix(1 0 0 1 209.4814 353.4148)"><tspan x="0" y="0" class="st10 st8 st9">D</tspan><tspan x="6" y="0" class="st10 st8 st9">e</tspan><tspan x="11" y="0" class="st10 st8 st9">r</tspan><tspan x="14" y="0" class="st10 st8 st9">e</tspan><tspan x="19" y="0" class="st10 st8 st9">k</tspan><tspan x="24" y="0" class="st10 st8 st9"> </tspan></text>
	</g>
	<g class="st6">
		<text transform="matrix(1 0 0 1 203.4814 364.4148)"><tspan x="0" y="0" class="st10 st8 st9">C</tspan><tspan x="6" y="0" class="st10 st8 st9">a</tspan><tspan x="11" y="0" class="st10 st8 st9">rr</tspan><tspan x="17" y="0" class="st10 st8 st9">,</tspan><tspan x="20" y="0" class="st10 st8 st9"> </tspan><tspan x="22" y="0" class="st10 st8 st9">Q</tspan><tspan x="29" y="0" class="st10 st8 st9">B</tspan></text>
	</g>
	<g class="st6">
		<text transform="matrix(1 0 0 1 253.0741 353.4149)"><tspan x="0" y="0" class="st10 st8 st9">Aa</tspan><tspan x="11" y="0" class="st10 st8 st9">r</tspan><tspan x="14" y="0" class="st10 st8 st9">o</tspan><tspan x="19" y="0" class="st10 st8 st9">n </tspan></text>
	</g>
	<g class="st6">
		<text transform="matrix(1 0 0 1 246.0741 364.4149)"><tspan x="0" y="0" class="st10 st8 st9">Ro</tspan><tspan x="11" y="0" class="st10 st8 st9">d</tspan><tspan x="16" y="0" class="st10 st8 st9">g</tspan><tspan x="21" y="0" class="st10 st8 st9">e</tspan><tspan x="26" y="0" class="st10 st8 st9">r</tspan><tspan x="29" y="0" class="st10 st8 st9">s,</tspan><tspan x="37" y="0" class="st10 st8 st9"> </tspan></text>
	</g>
	<g class="st6">
		<text transform="matrix(1 0 0 1 258.0741 374.4149)"><tspan x="0" y="0" class="st10 st8 st9">Q</tspan><tspan x="7" y="0" class="st10 st8 st9">B</tspan></text>
	</g>
	<g class="st6">
		<text transform="matrix(1 0 0 1 297.6643 353.4149)"><tspan x="0" y="0" class="st10 st8 st9">A</tspan><tspan x="6" y="0" class="st10 st8 st9">n</tspan><tspan x="11" y="0" class="st10 st8 st9">d</tspan><tspan x="16" y="0" class="st10 st8 st9">y</tspan><tspan x="21" y="0" class="st10 st8 st9"> </tspan></text>
	</g>
	<g class="st6">
		<text transform="matrix(1 0 0 1 293.6643 364.4149)"><tspan x="0" y="0" class="st10 st8 st9">D</tspan><tspan x="6" y="0" class="st10 st8 st9">a</tspan><tspan x="11" y="0" class="st10 st8 st9">l</tspan><tspan x="13" y="0" class="st10 st8 st9">t</tspan><tspan x="16" y="0" class="st10 st8 st9">o</tspan><tspan x="21" y="0" class="st10 st8 st9">n</tspan><tspan x="26" y="0" class="st10 st8 st9">,</tspan><tspan x="29" y="0" class="st10 st8 st9"> </tspan></text>
	</g>
	<g class="st6">
		<text transform="matrix(1 0 0 1 301.6643 374.4149)"><tspan x="0" y="0" class="st10 st8 st9">Q</tspan><tspan x="7" y="0" class="st10 st8 st9">B</tspan></text>
	</g>
	<g class="st6">
		<text transform="matrix(1 0 0 1 336.2571 353.4149)"><tspan x="0" y="0" class="st10 st8 st9">M</tspan><tspan x="8" y="0" class="st10 st8 st9">a</tspan><tspan x="13" y="0" class="st10 st8 st9">r</tspan><tspan x="16" y="0" class="st10 st8 st9">c</tspan><tspan x="21" y="0" class="st10 st8 st9">u</tspan><tspan x="26" y="0" class="st10 st8 st9">s</tspan><tspan x="31" y="0" class="st10 st8 st9"> </tspan></text>
	</g>
	<g class="st6">
		<text transform="matrix(1 0 0 1 335.2571 364.4149)"><tspan x="0" y="0" class="st10 st8 st9">M</tspan><tspan x="8" y="0" class="st10 st8 st9">a</tspan><tspan x="13" y="0" class="st10 st8 st9">ri</tspan><tspan x="18" y="0" class="st10 st8 st9">o</tspan><tspan x="23" y="0" class="st10 st8 st9">t</tspan><tspan x="26" y="0" class="st10 st8 st9">a</tspan><tspan x="31" y="0" class="st10 st8 st9">,</tspan><tspan x="34" y="0" class="st10 st8 st9"> </tspan></text>
	</g>
	<g class="st6">
		<text transform="matrix(1 0 0 1 345.2571 374.4149)"><tspan x="0" y="0" class="st10 st8 st9">Q</tspan><tspan x="7" y="0" class="st10 st8 st9">B</tspan></text>
	</g>
	<g class="st6">
		<text transform="matrix(1 0 0 1 380.8524 353.4149)"><tspan x="0" y="0" class="st10 st8 st9">C</tspan><tspan x="6" y="0" class="st10 st8 st9">a</tspan><tspan x="11" y="0" class="st10 st8 st9">r</tspan><tspan x="14" y="0" class="st10 st8 st9">s</tspan><tspan x="19" y="0" class="st10 st8 st9">o</tspan><tspan x="24" y="0" class="st10 st8 st9">n </tspan></text>
	</g>
	<g class="st6">
		<text transform="matrix(1 0 0 1 379.8524 364.4149)"><tspan x="0" y="0" class="st10 st8 st9">Pa</tspan><tspan x="11" y="0" class="st10 st8 st9">l</tspan><tspan x="13" y="0" class="st10 st8 st9">m</tspan><tspan x="21" y="0" class="st10 st8 st9">e</tspan><tspan x="26" y="0" class="st10 st8 st9">r</tspan><tspan x="29" y="0" class="st10 st8 st9">,</tspan><tspan x="32" y="0" class="st10 st8 st9"> </tspan></text>
	</g>
	<g class="st6">
		<text transform="matrix(1 0 0 1 388.8524 374.4149)"><tspan x="0" y="0" class="st10 st8 st9">Q</tspan><tspan x="7" y="0" class="st10 st8 st9">B</tspan></text>
	</g>
	<g class="st6">
		<text transform="matrix(1 0 0 1 434.4425 353.4149)"><tspan x="0" y="0" class="st10 st8 st9">E</tspan><tspan x="5" y="0" class="st10 st8 st9">li </tspan></text>
	</g>
	<g class="st6">
		<text transform="matrix(1 0 0 1 420.4425 364.4149)"><tspan x="0" y="0" class="st10 st8 st9">M</tspan><tspan x="8" y="0" class="st10 st8 st9">a</tspan><tspan x="13" y="0" class="st10 st8 st9">nnin</tspan><tspan x="30" y="0" class="st10 st8 st9">g</tspan><tspan x="35" y="0" class="st10 st8 st9">,</tspan><tspan x="38" y="0" class="st10 st8 st9"> </tspan></text>
	</g>
	<g class="st6">
		<text transform="matrix(1 0 0 1 432.4425 374.4149)"><tspan x="0" y="0" class="st10 st8 st9">Q</tspan><tspan x="7" y="0" class="st10 st8 st9">B</tspan></text>
	</g>
	<g class="st6">
		<text transform="matrix(1 0 0 1 468.0353 353.4149)"><tspan x="0" y="0" class="st10 st8 st9">J</tspan><tspan x="5" y="0" class="st10 st8 st9">a</tspan><tspan x="10" y="0" class="st10 st8 st9">m</tspan><tspan x="18" y="0" class="st10 st8 st9">e</tspan><tspan x="23" y="0" class="st10 st8 st9">i</tspan><tspan x="25" y="0" class="st10 st8 st9">s</tspan><tspan x="30" y="0" class="st10 st8 st9"> </tspan></text>
	</g>
	<g class="st6">
		<text transform="matrix(1 0 0 1 465.0353 364.4149)"><tspan x="0" y="0" class="st10 st8 st9">W</tspan><tspan x="8" y="0" class="st10 st8 st9">in</tspan><tspan x="15" y="0" class="st10 st8 st9">s</tspan><tspan x="20" y="0" class="st10 st8 st9">t</tspan><tspan x="23" y="0" class="st10 st8 st9">o</tspan><tspan x="28" y="0" class="st10 st8 st9">n</tspan><tspan x="33" y="0" class="st10 st8 st9">,</tspan><tspan x="36" y="0" class="st10 st8 st9"> </tspan></text>
	</g>
	<g class="st6">
		<text transform="matrix(1 0 0 1 476.0353 374.4149)"><tspan x="0" y="0" class="st10 st8 st9">Q</tspan><tspan x="7" y="0" class="st10 st8 st9">B</tspan></text>
	</g>
	<g class="st6">
		<text transform="matrix(1 0 0 1 508.628 353.4149)"><tspan x="0" y="0" class="st10 st8 st9">M</tspan><tspan x="8" y="0" class="st10 st8 st9">a</tspan><tspan x="13" y="0" class="st10 st8 st9">tt</tspan><tspan x="19" y="0" class="st10 st8 st9">h</tspan><tspan x="24" y="0" class="st10 st8 st9">e</tspan><tspan x="29" y="0" class="st10 st8 st9">w</tspan><tspan x="36" y="0" class="st10 st8 st9"> </tspan></text>
	</g>
	<g class="st6">
		<text transform="matrix(1 0 0 1 508.628 364.4149)"><tspan x="0" y="0" class="st10 st8 st9">Sta</tspan><tspan x="14" y="0" class="st10 st8 st9">ff</tspan><tspan x="20" y="0" class="st10 st8 st9">o</tspan><tspan x="25" y="0" class="st10 st8 st9">r</tspan><tspan x="28" y="0" class="st10 st8 st9">d</tspan><tspan x="33" y="0" class="st10 st8 st9">,</tspan><tspan x="36" y="0" class="st10 st8 st9"> </tspan></text>
	</g>
	<g class="st6">
		<text transform="matrix(1 0 0 1 519.6279 374.4149)"><tspan x="0" y="0" class="st10 st8 st9">Q</tspan><tspan x="7" y="0" class="st10 st8 st9">B</tspan></text>
	</g>
	<g class="st6">
		<text transform="matrix(1 0 0 1 562.2207 353.4149)"><tspan x="0" y="0" class="st10 st8 st9">J</tspan><tspan x="5" y="0" class="st10 st8 st9">o</tspan><tspan x="10" y="0" class="st10 st8 st9">e</tspan><tspan x="15" y="0" class="st10 st8 st9"> </tspan></text>
	</g>
	<g class="st6">
		<text transform="matrix(1 0 0 1 555.2207 364.4149)"><tspan x="0" y="0" class="st10 st8 st9">F</tspan><tspan x="5" y="0" class="st10 st8 st9">l</tspan><tspan x="7" y="0" class="st10 st8 st9">acc</tspan><tspan x="22" y="0" class="st10 st8 st9">o</tspan><tspan x="27" y="0" class="st10 st8 st9">,</tspan><tspan x="30" y="0" class="st10 st8 st9"> </tspan></text>
	</g>
	<g class="st6">
		<text transform="matrix(1 0 0 1 563.2207 374.4149)"><tspan x="0" y="0" class="st10 st8 st9">Q</tspan><tspan x="7" y="0" class="st10 st8 st9">B</tspan></text>
	</g>
	<g class="st6">
		<text transform="matrix(1 0 0 1 598.8135 353.4149)"><tspan x="0" y="0" class="st10 st8 st9">R</tspan><tspan x="6" y="0" class="st10 st8 st9">u</tspan><tspan x="11" y="0" class="st10 st8 st9">ss</tspan><tspan x="21" y="0" class="st10 st8 st9">e</tspan><tspan x="26" y="0" class="st10 st8 st9">ll </tspan></text>
	</g>
	<g class="st6">
		<text transform="matrix(1 0 0 1 598.8135 364.4149)"><tspan x="0" y="0" class="st10 st8 st9">W</tspan><tspan x="8" y="0" class="st10 st8 st9">il</tspan><tspan x="12" y="0" class="st10 st8 st9">s</tspan><tspan x="17" y="0" class="st10 st8 st9">o</tspan><tspan x="22" y="0" class="st10 st8 st9">n</tspan><tspan x="27" y="0" class="st10 st8 st9">,</tspan><tspan x="30" y="0" class="st10 st8 st9"> </tspan></text>
	</g>
	<g class="st6">
		<text transform="matrix(1 0 0 1 606.8135 374.4149)"><tspan x="0" y="0" class="st10 st8 st9">Q</tspan><tspan x="7" y="0" class="st10 st8 st9">B</tspan></text>
	</g>
	<g class="st6">
		<text transform="matrix(1 0 0 1 649.4087 353.4149)"><tspan x="0" y="0" class="st10 st8 st9">D</tspan><tspan x="6" y="0" class="st10 st8 st9">a</tspan><tspan x="11" y="0" class="st10 st8 st9">k</tspan><tspan x="16" y="0" class="st10 st8 st9"> </tspan></text>
	</g>
	<g class="st6">
		<text transform="matrix(1 0 0 1 638.4087 364.4149)"><tspan x="0" y="0" class="st10 st8 st9">P</tspan><tspan x="6" y="0" class="st10 st8 st9">r</tspan><tspan x="9" y="0" class="st10 st8 st9">e</tspan><tspan x="14" y="0" class="st10 st8 st9">s</tspan><tspan x="19" y="0" class="st10 st8 st9">c</tspan><tspan x="24" y="0" class="st10 st8 st9">o</tspan><tspan x="29" y="0" class="st10 st8 st9">tt</tspan><tspan x="35" y="0" class="st10 st8 st9">,</tspan><tspan x="38" y="0" class="st10 st8 st9"> </tspan></text>
	</g>
	<g class="st6">
		<text transform="matrix(1 0 0 1 650.4087 374.4149)"><tspan x="0" y="0" class="st10 st8 st9">Q</tspan><tspan x="7" y="0" class="st10 st8 st9">B</tspan></text>
	</g>
	<g class="st6">
		<text transform="matrix(1 0 0 1 136.2 23.5)"><tspan x="0" y="0" class="st10 st8 st11">2016</tspan><tspan x="32" y="0" class="st10 st8 st11"> </tspan><tspan x="35" y="0" class="st10 st8 st11">Q</tspan><tspan x="46" y="0" class="st10 st8 st11">u</tspan><tspan x="54" y="0" class="st10 st8 st11">a</tspan><tspan x="62" y="0" class="st10 st8 st11">r</tspan><tspan x="67" y="0" class="st10 st8 st11">t</tspan><tspan x="71" y="0" class="st10 st8 st11">e</tspan><tspan x="79" y="0" class="st10 st8 st11">r</tspan><tspan x="84" y="0" class="st10 st8 st11">b</tspan><tspan x="92" y="0" class="st10 st8 st11">ac</tspan><tspan x="108" y="0" class="st10 st8 st11">k</tspan><tspan x="115" y="0" class="st10 st8 st11"> </tspan><tspan x="118" y="0" class="st10 st8 st11 st12">T</tspan><tspan x="124" y="0" class="st10 st8 st11">o</tspan><tspan x="132" y="0" class="st10 st8 st11">u</tspan><tspan x="140" y="0" class="st10 st8 st11">c</tspan><tspan x="148" y="0" class="st10 st8 st11">h</tspan><tspan x="156" y="0" class="st10 st8 st11">d</tspan><tspan x="164" y="0" class="st10 st8 st11">o</tspan><tspan x="172" y="0" class="st10 st8 st11">w</tspan><tspan x="183" y="0" class="st10 st8 st11">n</tspan><tspan x="191" y="0" class="st10 st8 st11">/</tspan><tspan x="196" y="0" class="st10 st8 st11">I</tspan><tspan x="200" y="0" class="st10 st8 st11">n</tspan><tspan x="208" y="0" class="st10 st8 st11">t</tspan><tspan x="212" y="0" class="st10 st8 st11">e</tspan><tspan x="220" y="0" class="st10 st8 st11">r</tspan><tspan x="224" y="0" class="st10 st8 st11">ce</tspan><tspan x="239.9" y="0" class="st10 st8 st11">p</tspan><tspan x="248" y="0" class="st10 st8 st11">t</tspan><tspan x="252" y="0" class="st10 st8 st11">i</tspan><tspan x="255" y="0" class="st10 st8 st11">o</tspan><tspan x="263" y="0" class="st10 st8 st11">n</tspan><tspan x="271" y="0" class="st10 st8 st11"> </tspan><tspan x="274" y="0" class="st10 st8 st11">R</tspan><tspan x="284" y="0" class="st10 st8 st11">a</tspan><tspan x="292" y="0" class="st10 st8 st11">t</tspan><tspan x="296" y="0" class="st10 st8 st11">i</tspan><tspan x="299" y="0" class="st10 st8 st11">o</tspan><tspan x="307" y="0" class="st10 st8 st11"> </tspan><tspan x="310" y="0" class="st10 st8 st11">T</tspan><tspan x="318" y="0" class="st10 st8 st11">h</tspan><tspan x="326" y="0" class="st10 st8 st11">r</tspan><tspan x="331" y="0" class="st10 st8 st11">o</tspan><tspan x="339" y="0" class="st10 st8 st11">u</tspan><tspan x="347" y="0" class="st10 st8 st11">g</tspan><tspan x="355" y="0" class="st10 st8 st11">h</tspan><tspan x="363" y="0" class="st10 st8 st11"> </tspan><tspan x="366" y="0" class="st10 st8 st11">W</tspan><tspan x="378" y="0" class="st10 st8 st11">ee</tspan><tspan x="394" y="0" class="st10 st8 st11">k</tspan><tspan x="401" y="0" class="st10 st8 st11"> </tspan><tspan x="404" y="0" class="st10 st8 st11">1</tspan><tspan x="412" y="0" class="st10 st8 st11">2</tspan></text>
	</g>
	<rect x="284" y="390" class="st13" width="4" height="5"/>
	<g class="st6">
		<text transform="matrix(1 0 0 1 290.1322 396.5674)"><tspan x="0" y="0" class="st10 st8 st9">To</tspan><tspan x="10" y="0" class="st10 st8 st9">u</tspan><tspan x="15" y="0" class="st10 st8 st9">c</tspan><tspan x="20" y="0" class="st10 st8 st9">h</tspan><tspan x="25" y="0" class="st10 st8 st9">d</tspan><tspan x="30" y="0" class="st10 st8 st9">o</tspan><tspan x="35" y="0" class="st10 st8 st9">w</tspan><tspan x="42" y="0" class="st10 st8 st9">ns</tspan></text>
	</g>
	<rect x="353" y="390" class="st14" width="5" height="5"/>
	<g class="st6">
		<text transform="matrix(1 0 0 1 359.7943 396.5674)"><tspan x="0" y="0" class="st10 st8 st9">I</tspan><tspan x="2" y="0" class="st10 st8 st9">n</tspan><tspan x="7" y="0" class="st10 st8 st9">te</tspan><tspan x="15" y="0" class="st10 st8 st9">r</tspan><tspan x="18" y="0" class="st10 st8 st9">ce</tspan><tspan x="28" y="0" class="st10 st8 st9">p</tspan><tspan x="33" y="0" class="st10 st8 st9">t</tspan><tspan x="36" y="0" class="st10 st8 st9">i</tspan><tspan x="38" y="0" class="st10 st8 st9">o</tspan><tspan x="43" y="0" class="st10 st8 st9">ns</tspan></text>
	</g>
	<rect x="0.5" y="0.5" class="st5" width="691" height="409"/>
</g>
</svg>
