<?xml version="1.0" encoding="utf-8"?>
<!-- Generator: Adobe Illustrator 20.1.0, SVG Export Plug-In . SVG Version: 6.00 Build 0)  -->
<svg version="1.1" id="Layer_1" xmlns="http://www.w3.org/2000/svg" xmlns:xlink="http://www.w3.org/1999/xlink" x="0px" y="0px"
	 viewBox="0 0 881 366" style="enable-background:new 0 0 881 366;" xml:space="preserve">
<style type="text/css">
	.st0{opacity:0;clip-path:url(#SVGID_2_);fill:#FFFFFF;}
	.st1{clip-path:url(#SVGID_2_);fill:#FFFFFF;}
	.st2{clip-path:url(#SVGID_4_);fill:#71AD46;}
	.st3{clip-path:url(#SVGID_6_);fill:none;stroke:#D9D9D8;stroke-linejoin:round;stroke-miterlimit:10;}
	.st4{clip-path:url(#SVGID_8_);}
	.st5{fill:#595A5A;}
	.st6{font-family:'Helvetica';}
	.st7{font-size:9px;}
	.st8{clip-path:url(#SVGID_10_);}
	.st9{clip-path:url(#SVGID_12_);}
	.st10{clip-path:url(#SVGID_14_);}
	.st11{clip-path:url(#SVGID_16_);}
	.st12{clip-path:url(#SVGID_18_);}
	.st13{clip-path:url(#SVGID_20_);}
	.st14{clip-path:url(#SVGID_22_);}
	.st15{clip-path:url(#SVGID_24_);}
	.st16{clip-path:url(#SVGID_26_);}
	.st17{clip-path:url(#SVGID_28_);}
	.st18{clip-path:url(#SVGID_30_);}
	.st19{clip-path:url(#SVGID_32_);}
	.st20{clip-path:url(#SVGID_34_);}
	.st21{clip-path:url(#SVGID_36_);}
	.st22{clip-path:url(#SVGID_38_);}
	.st23{clip-path:url(#SVGID_40_);}
	.st24{clip-path:url(#SVGID_42_);}
	.st25{clip-path:url(#SVGID_44_);}
	.st26{clip-path:url(#SVGID_46_);}
	.st27{clip-path:url(#SVGID_48_);}
	.st28{letter-spacing:1;}
	.st29{clip-path:url(#SVGID_50_);}
	.st30{clip-path:url(#SVGID_52_);}
	.st31{clip-path:url(#SVGID_54_);}
	.st32{clip-path:url(#SVGID_56_);}
	.st33{clip-path:url(#SVGID_58_);}
	.st34{clip-path:url(#SVGID_60_);}
	.st35{clip-path:url(#SVGID_62_);}
	.st36{clip-path:url(#SVGID_64_);}
	.st37{clip-path:url(#SVGID_66_);}
	.st38{clip-path:url(#SVGID_68_);}
	.st39{font-size:14.1913px;}
	.st40{letter-spacing:-1;}
	.st41{clip-path:url(#SVGID_70_);fill:none;stroke:#D9D9D8;stroke-linejoin:round;stroke-miterlimit:10;}
</style>
<g>
	<defs>
		<rect id="SVGID_1_" width="882" height="367"/>
	</defs>
	<clipPath id="SVGID_2_">
		<use xlink:href="#SVGID_1_"  style="overflow:visible;"/>
	</clipPath>
	<rect class="st0" width="882" height="367"/>
	<rect y="1" class="st1" width="882" height="366"/>
</g>
<g>
	<defs>
		<rect id="SVGID_3_" x="110" y="41" width="734" height="302"/>
	</defs>
	<clipPath id="SVGID_4_">
		<use xlink:href="#SVGID_3_"  style="overflow:visible;"/>
	</clipPath>
	<path class="st2" d="M436,52H111v-6h325V52z M451,67H111v-6h340V67z M459,82H111v-5h348V82z M464,97H111v-5h353V97z M471,112H111
		v-5h360V112z M477,127H111v-5h366V127z M477,142H111v-5h366V142z M477,157H111v-5h366V157z M514,172H111v-5h403V172z M523,187H111
		v-5h412V187z M550,203H111v-6h439V203z M551,218H111v-6h440V218z M559,233H111v-6h448V233z M596,248H111v-6h485V248z M681,263H111
		v-5h570V263z M713,278H111v-5h602V278z M722,293H111v-5h611V293z M722,308H111v-5h611V308z M795,323H111v-5h684V323z M809,338H111
		v-5h698V338z"/>
</g>
<g>
	<defs>
		<rect id="SVGID_5_" width="881" height="366"/>
	</defs>
	<clipPath id="SVGID_6_">
		<use xlink:href="#SVGID_5_"  style="overflow:visible;"/>
	</clipPath>
	<line class="st3" x1="110.5" y1="343.5" x2="110.5" y2="41.5"/>
</g>
<g>
	<defs>
		<rect id="SVGID_7_" width="881" height="366"/>
	</defs>
	<clipPath id="SVGID_8_">
		<use xlink:href="#SVGID_7_"  style="overflow:visible;"/>
	</clipPath>
	<g class="st4">
		<text transform="matrix(1 0 0 1 106.0334 357.9656)" class="st5 st6 st7">$0</text>
	</g>
</g>
<g>
	<defs>
		<rect id="SVGID_9_" width="881" height="366"/>
	</defs>
	<clipPath id="SVGID_10_">
		<use xlink:href="#SVGID_9_"  style="overflow:visible;"/>
	</clipPath>
	<g class="st8">
		<text transform="matrix(1 0 0 1 169.4533 357.9656)"><tspan x="0" y="0" class="st5 st6 st7">$2</tspan><tspan x="10" y="0" class="st5 st6 st7">,</tspan><tspan x="13" y="0" class="st5 st6 st7">000</tspan><tspan x="28" y="0" class="st5 st6 st7">,</tspan><tspan x="31" y="0" class="st5 st6 st7">000</tspan></text>
	</g>
</g>
<g>
	<defs>
		<rect id="SVGID_11_" width="881" height="366"/>
	</defs>
	<clipPath id="SVGID_12_">
		<use xlink:href="#SVGID_11_"  style="overflow:visible;"/>
	</clipPath>
	<g class="st9">
		<text transform="matrix(1 0 0 1 250.8732 357.9656)"><tspan x="0" y="0" class="st5 st6 st7">$4</tspan><tspan x="10" y="0" class="st5 st6 st7">,</tspan><tspan x="13" y="0" class="st5 st6 st7">000</tspan><tspan x="28" y="0" class="st5 st6 st7">,</tspan><tspan x="31" y="0" class="st5 st6 st7">000</tspan></text>
	</g>
</g>
<g>
	<defs>
		<rect id="SVGID_13_" width="881" height="366"/>
	</defs>
	<clipPath id="SVGID_14_">
		<use xlink:href="#SVGID_13_"  style="overflow:visible;"/>
	</clipPath>
	<g class="st10">
		<text transform="matrix(1 0 0 1 332.2932 357.9656)"><tspan x="0" y="0" class="st5 st6 st7">$6</tspan><tspan x="10" y="0" class="st5 st6 st7">,</tspan><tspan x="13" y="0" class="st5 st6 st7">000</tspan><tspan x="28" y="0" class="st5 st6 st7">,</tspan><tspan x="31" y="0" class="st5 st6 st7">000</tspan></text>
	</g>
</g>
<g>
	<defs>
		<rect id="SVGID_15_" width="881" height="366"/>
	</defs>
	<clipPath id="SVGID_16_">
		<use xlink:href="#SVGID_15_"  style="overflow:visible;"/>
	</clipPath>
	<g class="st11">
		<text transform="matrix(1 0 0 1 413.7131 357.9656)"><tspan x="0" y="0" class="st5 st6 st7">$8</tspan><tspan x="10" y="0" class="st5 st6 st7">,</tspan><tspan x="13" y="0" class="st5 st6 st7">000</tspan><tspan x="28" y="0" class="st5 st6 st7">,</tspan><tspan x="31" y="0" class="st5 st6 st7">000</tspan></text>
	</g>
</g>
<g>
	<defs>
		<rect id="SVGID_17_" width="881" height="366"/>
	</defs>
	<clipPath id="SVGID_18_">
		<use xlink:href="#SVGID_17_"  style="overflow:visible;"/>
	</clipPath>
	<g class="st12">
		<text transform="matrix(1 0 0 1 492.1357 357.9656)"><tspan x="0" y="0" class="st5 st6 st7">$10</tspan><tspan x="15" y="0" class="st5 st6 st7">,</tspan><tspan x="18" y="0" class="st5 st6 st7">000</tspan><tspan x="33" y="0" class="st5 st6 st7">,</tspan><tspan x="36" y="0" class="st5 st6 st7">000</tspan></text>
	</g>
</g>
<g>
	<defs>
		<rect id="SVGID_19_" width="881" height="366"/>
	</defs>
	<clipPath id="SVGID_20_">
		<use xlink:href="#SVGID_19_"  style="overflow:visible;"/>
	</clipPath>
	<g class="st13">
		<text transform="matrix(1 0 0 1 573.5556 357.9656)"><tspan x="0" y="0" class="st5 st6 st7">$12</tspan><tspan x="15" y="0" class="st5 st6 st7">,</tspan><tspan x="18" y="0" class="st5 st6 st7">000</tspan><tspan x="33" y="0" class="st5 st6 st7">,</tspan><tspan x="36" y="0" class="st5 st6 st7">000</tspan></text>
	</g>
</g>
<g>
	<defs>
		<rect id="SVGID_21_" width="881" height="366"/>
	</defs>
	<clipPath id="SVGID_22_">
		<use xlink:href="#SVGID_21_"  style="overflow:visible;"/>
	</clipPath>
	<g class="st14">
		<text transform="matrix(1 0 0 1 654.9756 357.9656)"><tspan x="0" y="0" class="st5 st6 st7">$14</tspan><tspan x="15" y="0" class="st5 st6 st7">,</tspan><tspan x="18" y="0" class="st5 st6 st7">000</tspan><tspan x="33" y="0" class="st5 st6 st7">,</tspan><tspan x="36" y="0" class="st5 st6 st7">000</tspan></text>
	</g>
</g>
<g>
	<defs>
		<rect id="SVGID_23_" width="881" height="366"/>
	</defs>
	<clipPath id="SVGID_24_">
		<use xlink:href="#SVGID_23_"  style="overflow:visible;"/>
	</clipPath>
	<g class="st15">
		<text transform="matrix(1 0 0 1 736.3955 357.9656)"><tspan x="0" y="0" class="st5 st6 st7">$16</tspan><tspan x="15" y="0" class="st5 st6 st7">,</tspan><tspan x="18" y="0" class="st5 st6 st7">000</tspan><tspan x="33" y="0" class="st5 st6 st7">,</tspan><tspan x="36" y="0" class="st5 st6 st7">000</tspan></text>
	</g>
</g>
<g>
	<defs>
		<rect id="SVGID_25_" width="881" height="366"/>
	</defs>
	<clipPath id="SVGID_26_">
		<use xlink:href="#SVGID_25_"  style="overflow:visible;"/>
	</clipPath>
	<g class="st16">
		<text transform="matrix(1 0 0 1 817.8155 357.9656)"><tspan x="0" y="0" class="st5 st6 st7">$18</tspan><tspan x="15" y="0" class="st5 st6 st7">,</tspan><tspan x="18" y="0" class="st5 st6 st7">000</tspan><tspan x="33" y="0" class="st5 st6 st7">,</tspan><tspan x="36" y="0" class="st5 st6 st7">000</tspan></text>
	</g>
</g>
<g>
	<defs>
		<rect id="SVGID_27_" y="328.1" width="337.3" height="15.1"/>
	</defs>
	<clipPath id="SVGID_28_">
		<use xlink:href="#SVGID_27_"  style="overflow:visible;"/>
	</clipPath>
	<g class="st17">
		<text transform="matrix(1 0 0 1 24.0092 339.1994)"><tspan x="0" y="0" class="st5 st6 st7">Shaquille</tspan><tspan x="37" y="0" class="st5 st6 st7"> </tspan><tspan x="40" y="0" class="st5 st6 st7">O</tspan><tspan x="47" y="0" class="st5 st6 st7">&apos;</tspan><tspan x="49" y="0" class="st5 st6 st7">N</tspan><tspan x="55" y="0" class="st5 st6 st7">eal</tspan><tspan x="67" y="0" class="st5 st6 st7">,</tspan><tspan x="70" y="0" class="st5 st6 st7"> </tspan><tspan x="72" y="0" class="st5 st6 st7">C</tspan></text>
	</g>
</g>
<g>
	<defs>
		<rect id="SVGID_29_" y="313" width="317.1" height="15.1"/>
	</defs>
	<clipPath id="SVGID_30_">
		<use xlink:href="#SVGID_29_"  style="overflow:visible;"/>
	</clipPath>
	<g class="st18">
		<text transform="matrix(1 0 0 1 30.3742 324.1185)"><tspan x="0" y="0" class="st5 st6 st7">Ke</tspan><tspan x="11" y="0" class="st5 st6 st7">v</tspan><tspan x="16" y="0" class="st5 st6 st7">in</tspan><tspan x="23" y="0" class="st5 st6 st7"> </tspan><tspan x="25" y="0" class="st5 st6 st7">Garne</tspan><tspan x="50" y="0" class="st5 st6 st7">tt,</tspan><tspan x="59" y="0" class="st5 st6 st7"> </tspan><tspan x="61" y="0" class="st5 st6 st7">PF</tspan></text>
	</g>
</g>
<g>
	<defs>
		<rect id="SVGID_31_" y="297.9" width="339.6" height="15.1"/>
	</defs>
	<clipPath id="SVGID_32_">
		<use xlink:href="#SVGID_31_"  style="overflow:visible;"/>
	</clipPath>
	<g class="st19">
		<text transform="matrix(1 0 0 1 23.6242 309.0376)"><tspan x="0" y="0" class="st5 st6 st7">Alon</tspan><tspan x="18" y="0" class="st5 st6 st7">z</tspan><tspan x="23" y="0" class="st5 st6 st7">o</tspan><tspan x="28" y="0" class="st5 st6 st7"> </tspan><tspan x="30" y="0" class="st5 st6 st7">M</tspan><tspan x="37" y="0" class="st5 st6 st7">ourning</tspan><tspan x="67" y="0" class="st5 st6 st7">, </tspan><tspan x="73" y="0" class="st5 st6 st7">C</tspan></text>
	</g>
</g>
<g>
	<defs>
		<rect id="SVGID_33_" y="282.8" width="330.6" height="15.1"/>
	</defs>
	<clipPath id="SVGID_34_">
		<use xlink:href="#SVGID_33_"  style="overflow:visible;"/>
	</clipPath>
	<g class="st20">
		<text transform="matrix(1 0 0 1 26.1242 293.9568)"><tspan x="0" y="0" class="st5 st6 st7">J</tspan><tspan x="5" y="0" class="st5 st6 st7">u</tspan><tspan x="10" y="0" class="st5 st6 st7">w</tspan><tspan x="16" y="0" class="st5 st6 st7">an</tspan><tspan x="26" y="0" class="st5 st6 st7"> </tspan><tspan x="29" y="0" class="st5 st6 st7">H</tspan><tspan x="35" y="0" class="st5 st6 st7">o</tspan><tspan x="40" y="0" class="st5 st6 st7">w</tspan><tspan x="46" y="0" class="st5 st6 st7">ard</tspan><tspan x="59" y="0" class="st5 st6 st7">, </tspan><tspan x="65" y="0" class="st5 st6 st7">PF</tspan></text>
	</g>
</g>
<g>
	<defs>
		<rect id="SVGID_35_" y="267.7" width="326.2" height="15.1"/>
	</defs>
	<clipPath id="SVGID_36_">
		<use xlink:href="#SVGID_35_"  style="overflow:visible;"/>
	</clipPath>
	<g class="st21">
		<text transform="matrix(1 0 0 1 27.8692 278.876)"><tspan x="0" y="0" class="st5 st6 st7">S</tspan><tspan x="6" y="0" class="st5 st6 st7">c</tspan><tspan x="11" y="0" class="st5 st6 st7">o</tspan><tspan x="16" y="0" class="st5 st6 st7">tt</tspan><tspan x="22" y="0" class="st5 st6 st7">ie</tspan><tspan x="29" y="0" class="st5 st6 st7"> </tspan><tspan x="31" y="0" class="st5 st6 st7">Pippen</tspan><tspan x="59" y="0" class="st5 st6 st7">,</tspan><tspan x="62" y="0" class="st5 st6 st7"> </tspan><tspan x="64" y="0" class="st5 st6 st7">SF</tspan></text>
	</g>
</g>
<g>
	<defs>
		<rect id="SVGID_37_" y="252.7" width="296.1" height="15.1"/>
	</defs>
	<clipPath id="SVGID_38_">
		<use xlink:href="#SVGID_37_"  style="overflow:visible;"/>
	</clipPath>
	<g class="st22">
		<text transform="matrix(1 0 0 1 37.8792 263.7952)"><tspan x="0" y="0" class="st5 st6 st7">Karl</tspan><tspan x="16" y="0" class="st5 st6 st7"> </tspan><tspan x="19" y="0" class="st5 st6 st7">M</tspan><tspan x="26" y="0" class="st5 st6 st7">alone</tspan><tspan x="48" y="0" class="st5 st6 st7">,</tspan><tspan x="51" y="0" class="st5 st6 st7"> </tspan><tspan x="53" y="0" class="st5 st6 st7">PF</tspan></text>
	</g>
</g>
<g>
	<defs>
		<rect id="SVGID_39_" y="237.6" width="305.1" height="15.1"/>
	</defs>
	<clipPath id="SVGID_40_">
		<use xlink:href="#SVGID_39_"  style="overflow:visible;"/>
	</clipPath>
	<g class="st23">
		<text transform="matrix(1 0 0 1 34.3792 248.7143)"><tspan x="0" y="0" class="st5 st6 st7">Larr</tspan><tspan x="16" y="0" class="st5 st6 st7">y</tspan><tspan x="21" y="0" class="st5 st6 st7"> </tspan><tspan x="23" y="0" class="st5 st6 st7">J</tspan><tspan x="28" y="0" class="st5 st6 st7">ohn</tspan><tspan x="43" y="0" class="st5 st6 st7">s</tspan><tspan x="48" y="0" class="st5 st6 st7">on</tspan><tspan x="58" y="0" class="st5 st6 st7">,</tspan><tspan x="61" y="0" class="st5 st6 st7"> </tspan><tspan x="63" y="0" class="st5 st6 st7">F</tspan></text>
	</g>
</g>
<g>
	<defs>
		<rect id="SVGID_41_" y="222.5" width="306.6" height="15.1"/>
	</defs>
	<clipPath id="SVGID_42_">
		<use xlink:href="#SVGID_41_"  style="overflow:visible;"/>
	</clipPath>
	<g class="st24">
		<text transform="matrix(1 0 0 1 34.1292 233.6335)"><tspan x="0" y="0" class="st5 st6 st7">Gar</tspan><tspan x="15" y="0" class="st5 st6 st7">y</tspan><tspan x="20" y="0" class="st5 st6 st7"> </tspan><tspan x="22" y="0" class="st5 st6 st7">Pa</tspan><tspan x="33" y="0" class="st5 st6 st7">yt</tspan><tspan x="41" y="0" class="st5 st6 st7">on</tspan><tspan x="51" y="0" class="st5 st6 st7">,</tspan><tspan x="54" y="0" class="st5 st6 st7"> </tspan><tspan x="56" y="0" class="st5 st6 st7">PG</tspan></text>
	</g>
</g>
<g>
	<defs>
		<rect id="SVGID_43_" y="207.4" width="363.7" height="15.1"/>
	</defs>
	<clipPath id="SVGID_44_">
		<use xlink:href="#SVGID_43_"  style="overflow:visible;"/>
	</clipPath>
	<g class="st25">
		<text transform="matrix(1 0 0 1 15.6192 218.5527)"><tspan x="0" y="0" class="st5 st6 st7">R</tspan><tspan x="6" y="0" class="st5 st6 st7">a</tspan><tspan x="11" y="0" class="st5 st6 st7">s</tspan><tspan x="16" y="0" class="st5 st6 st7">heed</tspan><tspan x="36" y="0" class="st5 st6 st7"> </tspan><tspan x="39" y="0" class="st5 st6 st7">W</tspan><tspan x="47" y="0" class="st5 st6 st7">alla</tspan><tspan x="61" y="0" class="st5 st6 st7">c</tspan><tspan x="66" y="0" class="st5 st6 st7">e</tspan><tspan x="71" y="0" class="st5 st6 st7">,</tspan><tspan x="74" y="0" class="st5 st6 st7"> </tspan><tspan x="76" y="0" class="st5 st6 st7">PF</tspan></text>
	</g>
</g>
<g>
	<defs>
		<rect id="SVGID_45_" y="192.3" width="297.6" height="15.1"/>
	</defs>
	<clipPath id="SVGID_46_">
		<use xlink:href="#SVGID_45_"  style="overflow:visible;"/>
	</clipPath>
	<g class="st26">
		<text transform="matrix(1 0 0 1 37.6242 203.4718)"><tspan x="0" y="0" class="st5 st6 st7">Sha</tspan><tspan x="16" y="0" class="st5 st6 st7">w</tspan><tspan x="22" y="0" class="st5 st6 st7">n</tspan><tspan x="27" y="0" class="st5 st6 st7"> </tspan><tspan x="30" y="0" class="st5 st6 st7">Ke</tspan><tspan x="41" y="0" class="st5 st6 st7">m</tspan><tspan x="48" y="0" class="st5 st6 st7">p</tspan><tspan x="53" y="0" class="st5 st6 st7">, </tspan><tspan x="59" y="0" class="st5 st6 st7">C</tspan></text>
	</g>
</g>
<g>
	<defs>
		<rect id="SVGID_47_" y="177.3" width="389.1" height="15.1"/>
	</defs>
	<clipPath id="SVGID_48_">
		<use xlink:href="#SVGID_47_"  style="overflow:visible;"/>
	</clipPath>
	<g class="st27">
		<text transform="matrix(1 0 0 1 6.3742 188.391)"><tspan x="0" y="0" class="st5 st6 st7">D</tspan><tspan x="6" y="0" class="st5 st6 st7">a</tspan><tspan x="11" y="0" class="st5 st6 st7">m</tspan><tspan x="18" y="0" class="st5 st6 st7">on</tspan><tspan x="28" y="0" class="st5 st6 st7 st28"> </tspan><tspan x="32" y="0" class="st5 st6 st7">S</tspan><tspan x="38" y="0" class="st5 st6 st7">t</tspan><tspan x="41" y="0" class="st5 st6 st7">ouda</tspan><tspan x="61" y="0" class="st5 st6 st7">m</tspan><tspan x="68" y="0" class="st5 st6 st7">ire</tspan><tspan x="78" y="0" class="st5 st6 st7">,</tspan><tspan x="81" y="0" class="st5 st6 st7"> </tspan><tspan x="83" y="0" class="st5 st6 st7">PG</tspan></text>
	</g>
</g>
<g>
	<defs>
		<rect id="SVGID_49_" y="162.2" width="362.1" height="15.1"/>
	</defs>
	<clipPath id="SVGID_50_">
		<use xlink:href="#SVGID_49_"  style="overflow:visible;"/>
	</clipPath>
	<g class="st29">
		<text transform="matrix(1 0 0 1 15.8742 173.3102)"><tspan x="0" y="0" class="st5 st6 st7">An</tspan><tspan x="11" y="0" class="st5 st6 st7">t</tspan><tspan x="14" y="0" class="st5 st6 st7">onio</tspan><tspan x="31" y="0" class="st5 st6 st7"> </tspan><tspan x="33" y="0" class="st5 st6 st7">M</tspan><tspan x="40" y="0" class="st5 st6 st7">c</tspan><tspan x="45" y="0" class="st5 st6 st7">D</tspan><tspan x="51" y="0" class="st5 st6 st7">y</tspan><tspan x="56" y="0" class="st5 st6 st7">e</tspan><tspan x="61" y="0" class="st5 st6 st7">ss,</tspan><tspan x="74" y="0" class="st5 st6 st7"> </tspan><tspan x="76" y="0" class="st5 st6 st7">PF</tspan></text>
	</g>
</g>
<g>
	<defs>
		<rect id="SVGID_51_" y="147.1" width="357.7" height="15.1"/>
	</defs>
	<clipPath id="SVGID_52_">
		<use xlink:href="#SVGID_51_"  style="overflow:visible;"/>
	</clipPath>
	<g class="st30">
		<text transform="matrix(1 0 0 1 17.6192 158.2293)"><tspan x="0" y="0" class="st5 st6 st7">Penn</tspan><tspan x="21" y="0" class="st5 st6 st7">y</tspan><tspan x="26" y="0" class="st5 st6 st7"> </tspan><tspan x="28" y="0" class="st5 st6 st7">H</tspan><tspan x="34" y="0" class="st5 st6 st7">arda</tspan><tspan x="52" y="0" class="st5 st6 st7">w</tspan><tspan x="58" y="0" class="st5 st6 st7">a</tspan><tspan x="63" y="0" class="st5 st6 st7">y, </tspan><tspan x="74" y="0" class="st5 st6 st7">SF</tspan></text>
	</g>
</g>
<g>
	<defs>
		<rect id="SVGID_53_" y="132" width="335.1" height="15.1"/>
	</defs>
	<clipPath id="SVGID_54_">
		<use xlink:href="#SVGID_53_"  style="overflow:visible;"/>
	</clipPath>
	<g class="st31">
		<text transform="matrix(1 0 0 1 25.3742 143.1485)"><tspan x="0" y="0" class="st5 st6 st7">An</tspan><tspan x="11" y="0" class="st5 st6 st7">t</tspan><tspan x="14" y="0" class="st5 st6 st7">oine</tspan><tspan x="31" y="0" class="st5 st6 st7"> </tspan><tspan x="33" y="0" class="st5 st6 st7">W</tspan><tspan x="41" y="0" class="st5 st6 st7">al</tspan><tspan x="48" y="0" class="st5 st6 st7">k</tspan><tspan x="53" y="0" class="st5 st6 st7">er</tspan><tspan x="61" y="0" class="st5 st6 st7">,</tspan><tspan x="64" y="0" class="st5 st6 st7"> </tspan><tspan x="66" y="0" class="st5 st6 st7">PF</tspan></text>
	</g>
</g>
<g>
	<defs>
		<rect id="SVGID_55_" y="116.9" width="363.6" height="15.1"/>
	</defs>
	<clipPath id="SVGID_56_">
		<use xlink:href="#SVGID_55_"  style="overflow:visible;"/>
	</clipPath>
	<g class="st32">
		<text transform="matrix(1 0 0 1 15.6242 128.0676)"><tspan x="0" y="0" class="st5 st6 st7">S</tspan><tspan x="6" y="0" class="st5 st6 st7">t</tspan><tspan x="9" y="0" class="st5 st6 st7">ephon</tspan><tspan x="34" y="0" class="st5 st6 st7"> </tspan><tspan x="36" y="0" class="st5 st6 st7">M</tspan><tspan x="43" y="0" class="st5 st6 st7">arbur</tspan><tspan x="64" y="0" class="st5 st6 st7">y,</tspan><tspan x="72" y="0" class="st5 st6 st7"> </tspan><tspan x="74" y="0" class="st5 st6 st7">PG</tspan></text>
	</g>
</g>
<g>
	<defs>
		<rect id="SVGID_57_" y="101.8" width="281.1" height="15.1"/>
	</defs>
	<clipPath id="SVGID_58_">
		<use xlink:href="#SVGID_57_"  style="overflow:visible;"/>
	</clipPath>
	<g class="st33">
		<text transform="matrix(1 0 0 1 42.3792 112.9868)"><tspan x="0" y="0" class="st5 st6 st7">Vlade</tspan><tspan x="23" y="0" class="st5 st6 st7"> </tspan><tspan x="26" y="0" class="st5 st6 st7">D</tspan><tspan x="32" y="0" class="st5 st6 st7">i</tspan><tspan x="34" y="0" class="st5 st6 st7">v</tspan><tspan x="39" y="0" class="st5 st6 st7">a</tspan><tspan x="44" y="0" class="st5 st6 st7">c,</tspan><tspan x="52" y="0" class="st5 st6 st7"> </tspan><tspan x="54" y="0" class="st5 st6 st7">C</tspan></text>
	</g>
</g>
<g>
	<defs>
		<rect id="SVGID_59_" y="86.8" width="314.1" height="15.1"/>
	</defs>
	<clipPath id="SVGID_60_">
		<use xlink:href="#SVGID_59_"  style="overflow:visible;"/>
	</clipPath>
	<g class="st34">
		<text transform="matrix(1 0 0 1 31.8792 97.906)"><tspan x="0" y="0" class="st5 st6 st7">Br</tspan><tspan x="9" y="0" class="st5 st6 st7">y</tspan><tspan x="14" y="0" class="st5 st6 st7">an</tspan><tspan x="24" y="0" class="st5 st6 st7">t</tspan><tspan x="27" y="0" class="st5 st6 st7"> </tspan><tspan x="29" y="0" class="st5 st6 st7">R</tspan><tspan x="35" y="0" class="st5 st6 st7">ee</tspan><tspan x="45" y="0" class="st5 st6 st7">v</tspan><tspan x="50" y="0" class="st5 st6 st7">e</tspan><tspan x="55" y="0" class="st5 st6 st7">s,</tspan><tspan x="63" y="0" class="st5 st6 st7"> </tspan><tspan x="65" y="0" class="st5 st6 st7">C</tspan></text>
	</g>
</g>
<g>
	<defs>
		<rect id="SVGID_61_" y="71.7" width="321.6" height="15.1"/>
	</defs>
	<clipPath id="SVGID_62_">
		<use xlink:href="#SVGID_61_"  style="overflow:visible;"/>
	</clipPath>
	<g class="st35">
		<text transform="matrix(1 0 0 1 28.6292 82.8251)"><tspan x="0" y="0" class="st5 st6 st7">T</tspan><tspan x="5" y="0" class="st5 st6 st7">o</tspan><tspan x="10" y="0" class="st5 st6 st7">m</tspan><tspan x="17" y="0" class="st5 st6 st7 st28"> </tspan><tspan x="21" y="0" class="st5 st6 st7">Guglio</tspan><tspan x="47" y="0" class="st5 st6 st7">tt</tspan><tspan x="53" y="0" class="st5 st6 st7">a</tspan><tspan x="58" y="0" class="st5 st6 st7">,</tspan><tspan x="61" y="0" class="st5 st6 st7"> </tspan><tspan x="63" y="0" class="st5 st6 st7">PF</tspan></text>
	</g>
</g>
<g>
	<defs>
		<rect id="SVGID_63_" y="56.6" width="324.6" height="15.1"/>
	</defs>
	<clipPath id="SVGID_64_">
		<use xlink:href="#SVGID_63_"  style="overflow:visible;"/>
	</clipPath>
	<g class="st36">
		<text transform="matrix(1 0 0 1 28.1242 67.7443)"><tspan x="0" y="0" class="st5 st6 st7">N</tspan><tspan x="6" y="0" class="st5 st6 st7">i</tspan><tspan x="8" y="0" class="st5 st6 st7">ck</tspan><tspan x="18" y="0" class="st5 st6 st7"> </tspan><tspan x="20" y="0" class="st5 st6 st7">Van</tspan><tspan x="36" y="0" class="st5 st6 st7"> </tspan><tspan x="39" y="0" class="st5 st6 st7">E</tspan><tspan x="45" y="0" class="st5 st6 st7">x</tspan><tspan x="50" y="0" class="st5 st6 st7">el</tspan><tspan x="57" y="0" class="st5 st6 st7">,</tspan><tspan x="60" y="0" class="st5 st6 st7"> </tspan><tspan x="62" y="0" class="st5 st6 st7">PG</tspan></text>
	</g>
</g>
<g>
	<defs>
		<rect id="SVGID_65_" y="41.5" width="327.6" height="15.1"/>
	</defs>
	<clipPath id="SVGID_66_">
		<use xlink:href="#SVGID_65_"  style="overflow:visible;"/>
	</clipPath>
	<g class="st37">
		<text transform="matrix(1 0 0 1 27.6242 52.6635)"><tspan x="0" y="0" class="st5 st6 st7">Elden</tspan><tspan x="23" y="0" class="st5 st6 st7"> </tspan><tspan x="26" y="0" class="st5 st6 st7">C</tspan><tspan x="32" y="0" class="st5 st6 st7">a</tspan><tspan x="37" y="0" class="st5 st6 st7">m</tspan><tspan x="44" y="0" class="st5 st6 st7">pbell</tspan><tspan x="63" y="0" class="st5 st6 st7">, </tspan><tspan x="69" y="0" class="st5 st6 st7">C</tspan></text>
	</g>
</g>
<g>
	<defs>
		<rect id="SVGID_67_" y="1" width="881" height="371"/>
	</defs>
	<clipPath id="SVGID_68_">
		<use xlink:href="#SVGID_67_"  style="overflow:visible;"/>
	</clipPath>
	<g class="st38">
		<text transform="matrix(0.9865 0 0 1 307.1772 25.5454)"><tspan x="0" y="0" class="st5 st6 st39">N</tspan><tspan x="10.1" y="0" class="st5 st6 st39">B</tspan><tspan x="19.3" y="0" class="st5 st6 st39 st40">A</tspan><tspan x="27.4" y="0" class="st5 st6 st39 st28"> </tspan><tspan x="32.5" y="0" class="st5 st6 st39">P</tspan><tspan x="41.6" y="0" class="st5 st6 st39">l</tspan><tspan x="44.6" y="0" class="st5 st6 st39">a</tspan><tspan x="52.7" y="0" class="st5 st6 st39">y</tspan><tspan x="59.8" y="0" class="st5 st6 st39">e</tspan><tspan x="67.9" y="0" class="st5 st6 st39">r</tspan><tspan x="73" y="0" class="st5 st6 st39"> </tspan><tspan x="76.1" y="0" class="st5 st6 st39">S</tspan><tspan x="85.2" y="0" class="st5 st6 st39">a</tspan><tspan x="93.3" y="0" class="st5 st6 st39">l</tspan><tspan x="96.3" y="0" class="st5 st6 st39">a</tspan><tspan x="104.4" y="0" class="st5 st6 st39">r</tspan><tspan x="109.5" y="0" class="st5 st6 st39">y</tspan><tspan x="116.6" y="0" class="st5 st6 st39"> </tspan><tspan x="120.6" y="0" class="st5 st6 st39">2001</tspan><tspan x="153.1" y="0" class="st5 st6 st39"> </tspan><tspan x="156.1" y="0" class="st5 st6 st39">P</tspan><tspan x="165.2" y="0" class="st5 st6 st39">e</tspan><tspan x="173.3" y="0" class="st5 st6 st39">r</tspan><tspan x="178.4" y="0" class="st5 st6 st39"> </tspan><tspan x="182.5" y="0" class="st5 st6 st39 st40">Y</tspan><tspan x="190.6" y="0" class="st5 st6 st39">ea</tspan><tspan x="206.8" y="0" class="st5 st6 st39">r(M</tspan><tspan x="229.1" y="0" class="st5 st6 st39">illi</tspan><tspan x="241.3" y="0" class="st5 st6 st39">on</tspan><tspan x="257.5" y="0" class="st5 st6 st39">s)</tspan></text>
	</g>
</g>
<g>
	<defs>
		<rect id="SVGID_69_" width="882" height="367"/>
	</defs>
	<clipPath id="SVGID_70_">
		<use xlink:href="#SVGID_69_"  style="overflow:visible;"/>
	</clipPath>
	<rect x="0.5" y="0.5" class="st41" width="881" height="366"/>
</g>
</svg>
