<?xml version="1.0" encoding="utf-8"?>
<!-- Generator: Adobe Illustrator 20.1.0, SVG Export Plug-In . SVG Version: 6.00 Build 0)  -->
<svg version="1.1" id="Layer_1" xmlns="http://www.w3.org/2000/svg" xmlns:xlink="http://www.w3.org/1999/xlink" x="0px" y="0px"
	 viewBox="0 0 521.6 532.3" style="enable-background:new 0 0 521.6 532.3;" xml:space="preserve">
<style type="text/css">
	.st0{clip-path:url(#SVGID_2_);fill:#71AD46;}
	.st1{clip-path:url(#SVGID_4_);fill:none;stroke:#D9D9D8;stroke-linejoin:round;stroke-miterlimit:10;}
	.st2{clip-path:url(#SVGID_4_);}
	.st3{fill:#595A5A;}
	.st4{font-family:'HelveticaNeue';}
	.st5{font-size:16.614px;}
	.st6{clip-path:url(#SVGID_6_);}
	.st7{letter-spacing:1.3;}
	.st8{clip-path:url(#SVGID_8_);}
	.st9{letter-spacing:-1.3;}
	.st10{clip-path:url(#SVGID_10_);}
	.st11{clip-path:url(#SVGID_12_);}
	.st12{clip-path:url(#SVGID_14_);}
	.st13{clip-path:url(#SVGID_16_);}
	.st14{clip-path:url(#SVGID_18_);}
	.st15{clip-path:url(#SVGID_20_);}
	.st16{clip-path:url(#SVGID_22_);}
	.st17{clip-path:url(#SVGID_24_);}
	.st18{clip-path:url(#SVGID_26_);}
	.st19{clip-path:url(#SVGID_28_);}
	.st20{clip-path:url(#SVGID_30_);}
	.st21{clip-path:url(#SVGID_32_);}
	.st22{clip-path:url(#SVGID_34_);}
	.st23{clip-path:url(#SVGID_36_);}
	.st24{clip-path:url(#SVGID_38_);}
	.st25{clip-path:url(#SVGID_40_);}
	.st26{clip-path:url(#SVGID_42_);}
	.st27{clip-path:url(#SVGID_44_);}
	.st28{clip-path:url(#SVGID_46_);}
	.st29{font-size:19.3829px;}
	.st30{letter-spacing:-2.5;}
	.st31{clip-path:url(#SVGID_46_);fill:none;stroke:#D9D9D8;stroke-linejoin:round;stroke-miterlimit:10;}
</style>
<g>
	<defs>
		<rect id="SVGID_1_" x="152.1" y="56.1" width="319.5" height="436.1"/>
	</defs>
	<clipPath id="SVGID_2_">
		<use xlink:href="#SVGID_1_"  style="overflow:visible;"/>
	</clipPath>
	<path class="st0" d="M313,71.3H152.1V63H313V71.3z M316.2,93.5H152.1v-8.3h164.1V93.5z M318.4,114.2H152.1v-6.9h166.3V114.2z
		 M320.6,136.4H152.1v-8.3h168.4V136.4z M320.6,158.5H152.1v-8.3h168.4V158.5z M320.6,180.7H152.1v-8.3h168.4V180.7z M322.8,201.4
		H152.1v-6.9h170.6V201.4z M328.2,223.6h-176v-8.3h176V223.6z M328.2,245.7h-176v-8.3h176V245.7z M328.2,267.9h-176v-8.3h176V267.9z
		 M334.7,288.7H152.1v-6.9h182.6V288.7z M336.9,310.8H152.1v-8.3h184.7V310.8z M336.9,333H152.1v-8.3h184.7V333z M341.2,355.1H152.1
		v-8.3h189.1V355.1z M346.7,375.9H152.1V369h194.5V375.9z M347.7,398H152.1v-8.3h195.6V398z M352.1,420.2h-200v-8.3h200V420.2z
		 M364,441H152.1V434H364V441z M364,463.1H152.1v-6.9H364V463.1z M398.8,485.3H152.1V477h246.7V485.3z"/>
</g>
<g>
	<defs>
		<rect id="SVGID_3_" y="-0.7" width="521.6" height="533"/>
	</defs>
	<clipPath id="SVGID_4_">
		<use xlink:href="#SVGID_3_"  style="overflow:visible;"/>
	</clipPath>
	<line class="st1" x1="152.7" y1="492.9" x2="152.7" y2="56.8"/>
	<g class="st2">
		<text transform="matrix(0.7849 0 0 1 144.5759 519.4432)"><tspan x="0" y="0" class="st3 st4 st5">$</tspan><tspan x="9.7" y="0" class="st3 st4 st5">0</tspan></text>
	</g>
	<g class="st2">
		<text transform="matrix(0.7849 0 0 1 193.9158 519.4432)"><tspan x="0" y="0" class="st3 st4 st5">$10</tspan><tspan x="29.1" y="0" class="st3 st4 st5">,</tspan><tspan x="33.2" y="0" class="st3 st4 st5">000</tspan><tspan x="62.3" y="0" class="st3 st4 st5">,</tspan><tspan x="66.5" y="0" class="st3 st4 st5">00</tspan><tspan x="85.8" y="0" class="st3 st4 st5">0</tspan></text>
	</g>
	<g class="st2">
		<text transform="matrix(0.7849 0 0 1 273.6829 519.4432)"><tspan x="0" y="0" class="st3 st4 st5">$20</tspan><tspan x="29.1" y="0" class="st3 st4 st5">,</tspan><tspan x="33.2" y="0" class="st3 st4 st5">000</tspan><tspan x="62.3" y="0" class="st3 st4 st5">,</tspan><tspan x="66.5" y="0" class="st3 st4 st5">00</tspan><tspan x="85.8" y="0" class="st3 st4 st5">0</tspan></text>
	</g>
	<g class="st2">
		<text transform="matrix(0.7849 0 0 1 353.4504 519.4432)"><tspan x="0" y="0" class="st3 st4 st5">$30</tspan><tspan x="29.1" y="0" class="st3 st4 st5">,</tspan><tspan x="33.2" y="0" class="st3 st4 st5">000</tspan><tspan x="62.3" y="0" class="st3 st4 st5">,</tspan><tspan x="66.5" y="0" class="st3 st4 st5">00</tspan><tspan x="85.8" y="0" class="st3 st4 st5">0</tspan></text>
	</g>
	<g class="st2">
		<text transform="matrix(0.7849 0 0 1 433.218 519.4432)"><tspan x="0" y="0" class="st3 st4 st5">$40</tspan><tspan x="29.1" y="0" class="st3 st4 st5">,</tspan><tspan x="33.2" y="0" class="st3 st4 st5">000</tspan><tspan x="62.3" y="0" class="st3 st4 st5">,</tspan><tspan x="66.5" y="0" class="st3 st4 st5">00</tspan><tspan x="85.8" y="0" class="st3 st4 st5">0</tspan></text>
	</g>
</g>
<g>
	<defs>
		<rect id="SVGID_5_" y="470.5" width="462.2" height="21.8"/>
	</defs>
	<clipPath id="SVGID_6_">
		<use xlink:href="#SVGID_5_"  style="overflow:visible;"/>
	</clipPath>
	<g class="st6">
		<text transform="matrix(0.7849 0 0 1 33.032 488.0897)"><tspan x="0" y="0" class="st3 st4 st5">L</tspan><tspan x="9.7" y="0" class="st3 st4 st5">e</tspan><tspan x="18" y="0" class="st3 st4 st5">B</tspan><tspan x="29.1" y="0" class="st3 st4 st5">r</tspan><tspan x="34.6" y="0" class="st3 st4 st5">o</tspan><tspan x="44.3" y="0" class="st3 st4 st5">n</tspan><tspan x="54" y="0" class="st3 st4 st5"> </tspan><tspan x="58.2" y="0" class="st3 st4 st5">J</tspan><tspan x="66.5" y="0" class="st3 st4 st5">a</tspan><tspan x="74.8" y="0" class="st3 st4 st5">m</tspan><tspan x="88.7" y="0" class="st3 st4 st5">e</tspan><tspan x="97" y="0" class="st3 st4 st5">s</tspan><tspan x="105.3" y="0" class="st3 st4 st5">,</tspan><tspan x="109.5" y="0" class="st3 st4 st5 st7"> </tspan><tspan x="116.4" y="0" class="st3 st4 st5">S</tspan><tspan x="127.4" y="0" class="st3 st4 st5">F</tspan></text>
	</g>
</g>
<g>
	<defs>
		<rect id="SVGID_7_" y="448.7" width="431" height="21.8"/>
	</defs>
	<clipPath id="SVGID_8_">
		<use xlink:href="#SVGID_7_"  style="overflow:visible;"/>
	</clipPath>
	<g class="st8">
		<text transform="matrix(0.7849 0 0 1 43.6706 466.2909)"><tspan x="0" y="0" class="st3 st4 st5">M</tspan><tspan x="13.9" y="0" class="st3 st4 st5">i</tspan><tspan x="18" y="0" class="st3 st4 st5">k</tspan><tspan x="26.3" y="0" class="st3 st4 st5">e</tspan><tspan x="34.7" y="0" class="st3 st4 st5"> </tspan><tspan x="40.2" y="0" class="st3 st4 st5">C</tspan><tspan x="52.6" y="0" class="st3 st4 st5">o</tspan><tspan x="62.3" y="0" class="st3 st4 st5">n</tspan><tspan x="72" y="0" class="st3 st4 st5">l</tspan><tspan x="76.2" y="0" class="st3 st4 st5">e</tspan><tspan x="84.5" y="0" class="st3 st4 st5 st9">y</tspan><tspan x="91.4" y="0" class="st3 st4 st5">, </tspan><tspan x="99.8" y="0" class="st3 st4 st5">P</tspan><tspan x="110.8" y="0" class="st3 st4 st5">G</tspan></text>
	</g>
</g>
<g>
	<defs>
		<rect id="SVGID_9_" y="426.9" width="368.6" height="21.8"/>
	</defs>
	<clipPath id="SVGID_10_">
		<use xlink:href="#SVGID_9_"  style="overflow:visible;"/>
	</clipPath>
	<g class="st10">
		<text transform="matrix(0.7849 0 0 1 63.8455 444.493)"><tspan x="0" y="0" class="st3 st4 st5">A</tspan><tspan x="11.1" y="0" class="st3 st4 st5">l</tspan><tspan x="15.2" y="0" class="st3 st4 st5"> </tspan><tspan x="19.4" y="0" class="st3 st4 st5">H</tspan><tspan x="31.8" y="0" class="st3 st4 st5">o</tspan><tspan x="41.5" y="0" class="st3 st4 st5">r</tspan><tspan x="47" y="0" class="st3 st4 st5">f</tspan><tspan x="52.5" y="0" class="st3 st4 st5">o</tspan><tspan x="62.2" y="0" class="st3 st4 st5">r</tspan><tspan x="67.8" y="0" class="st3 st4 st5">d</tspan><tspan x="77.5" y="0" class="st3 st4 st5">,</tspan><tspan x="81.6" y="0" class="st3 st4 st5 st9"> </tspan><tspan x="84.4" y="0" class="st3 st4 st5">C</tspan></text>
	</g>
</g>
<g>
	<defs>
		<rect id="SVGID_11_" y="405.1" width="439.6" height="21.8"/>
	</defs>
	<clipPath id="SVGID_12_">
		<use xlink:href="#SVGID_11_"  style="overflow:visible;"/>
	</clipPath>
	<g class="st11">
		<text transform="matrix(0.7849 0 0 1 40.0622 422.6942)"><tspan x="0" y="0" class="st3 st4 st5">D</tspan><tspan x="11.1" y="0" class="st3 st4 st5">i</tspan><tspan x="15.2" y="0" class="st3 st4 st5">r</tspan><tspan x="20.8" y="0" class="st3 st4 st5">k</tspan><tspan x="29.1" y="0" class="st3 st4 st5"> </tspan><tspan x="34.6" y="0" class="st3 st4 st5">N</tspan><tspan x="47" y="0" class="st3 st4 st5">o</tspan><tspan x="56.7" y="0" class="st3 st4 st5">w</tspan><tspan x="69.2" y="0" class="st3 st4 st5">i</tspan><tspan x="73.3" y="0" class="st3 st4 st5">t</tspan><tspan x="78.8" y="0" class="st3 st4 st5">z</tspan><tspan x="87.1" y="0" class="st3 st4 st5">k</tspan><tspan x="95.4" y="0" class="st3 st4 st5">i</tspan><tspan x="99.6" y="0" class="st3 st4 st5">,</tspan><tspan x="103.7" y="0" class="st3 st4 st5 st9"> </tspan><tspan x="106.5" y="0" class="st3 st4 st5">P</tspan><tspan x="117.6" y="0" class="st3 st4 st5">F</tspan></text>
	</g>
</g>
<g>
	<defs>
		<rect id="SVGID_13_" y="383.3" width="510.7" height="21.8"/>
	</defs>
	<clipPath id="SVGID_14_">
		<use xlink:href="#SVGID_13_"  style="overflow:visible;"/>
	</clipPath>
	<g class="st12">
		<text transform="matrix(0.7849 0 0 1 16.2576 400.8963)"><tspan x="0" y="0" class="st3 st4 st5">C</tspan><tspan x="12.5" y="0" class="st3 st4 st5">a</tspan><tspan x="20.8" y="0" class="st3 st4 st5">r</tspan><tspan x="26.3" y="0" class="st3 st4 st5">m</tspan><tspan x="40.2" y="0" class="st3 st4 st5">e</tspan><tspan x="48.5" y="0" class="st3 st4 st5">l</tspan><tspan x="52.6" y="0" class="st3 st4 st5">o</tspan><tspan x="62.3" y="0" class="st3 st4 st5"> </tspan><tspan x="67.8" y="0" class="st3 st4 st5">A</tspan><tspan x="78.9" y="0" class="st3 st4 st5">n</tspan><tspan x="88.6" y="0" class="st3 st4 st5">t</tspan><tspan x="94.1" y="0" class="st3 st4 st5">h</tspan><tspan x="103.8" y="0" class="st3 st4 st5">o</tspan><tspan x="113.5" y="0" class="st3 st4 st5">n</tspan><tspan x="123.2" y="0" class="st3 st4 st5 st9">y</tspan><tspan x="130.1" y="0" class="st3 st4 st5">,</tspan><tspan x="134.3" y="0" class="st3 st4 st5 st9"> </tspan><tspan x="137" y="0" class="st3 st4 st5">S</tspan><tspan x="148.1" y="0" class="st3 st4 st5">F</tspan></text>
	</g>
</g>
<g>
	<defs>
		<rect id="SVGID_15_" y="361.5" width="465.8" height="21.8"/>
	</defs>
	<clipPath id="SVGID_16_">
		<use xlink:href="#SVGID_15_"  style="overflow:visible;"/>
	</clipPath>
	<g class="st13">
		<text transform="matrix(0.7849 0 0 1 31.3474 379.0985)"><tspan x="0" y="0" class="st3 st4 st5">Da</tspan><tspan x="19.4" y="0" class="st3 st4 st5">m</tspan><tspan x="33.2" y="0" class="st3 st4 st5">i</tspan><tspan x="37.4" y="0" class="st3 st4 st5">a</tspan><tspan x="45.7" y="0" class="st3 st4 st5">n</tspan><tspan x="55.4" y="0" class="st3 st4 st5"> </tspan><tspan x="60.9" y="0" class="st3 st4 st5">Lill</tspan><tspan x="83" y="0" class="st3 st4 st5">a</tspan><tspan x="91.3" y="0" class="st3 st4 st5">r</tspan><tspan x="96.8" y="0" class="st3 st4 st5">d</tspan><tspan x="106.5" y="0" class="st3 st4 st5">, </tspan><tspan x="114.8" y="0" class="st3 st4 st5">P</tspan><tspan x="125.9" y="0" class="st3 st4 st5">G</tspan></text>
	</g>
</g>
<g>
	<defs>
		<rect id="SVGID_17_" y="339.7" width="402.7" height="21.8"/>
	</defs>
	<clipPath id="SVGID_18_">
		<use xlink:href="#SVGID_17_"  style="overflow:visible;"/>
	</clipPath>
	<g class="st14">
		<text transform="matrix(0.7849 0 0 1 52.7341 357.3006)"><tspan x="0" y="0" class="st3 st4 st5">C</tspan><tspan x="12.5" y="0" class="st3 st4 st5">h</tspan><tspan x="22.1" y="0" class="st3 st4 st5">r</tspan><tspan x="27.7" y="0" class="st3 st4 st5">i</tspan><tspan x="31.8" y="0" class="st3 st4 st5">s</tspan><tspan x="40.1" y="0" class="st3 st4 st5 st9"> </tspan><tspan x="42.9" y="0" class="st3 st4 st5">B</tspan><tspan x="54" y="0" class="st3 st4 st5">o</tspan><tspan x="63.7" y="0" class="st3 st4 st5">s</tspan><tspan x="72" y="0" class="st3 st4 st5">h</tspan><tspan x="81.7" y="0" class="st3 st4 st5">,</tspan><tspan x="85.8" y="0" class="st3 st4 st5"> </tspan><tspan x="91.4" y="0" class="st3 st4 st5">P</tspan><tspan x="102.4" y="0" class="st3 st4 st5">F</tspan></text>
	</g>
</g>
<g>
	<defs>
		<rect id="SVGID_19_" y="317.9" width="468.6" height="21.8"/>
	</defs>
	<clipPath id="SVGID_20_">
		<use xlink:href="#SVGID_19_"  style="overflow:visible;"/>
	</clipPath>
	<g class="st15">
		<text transform="matrix(0.7849 0 0 1 30.8806 335.5028)"><tspan x="0" y="0" class="st3 st4 st5">D</tspan><tspan x="11.1" y="0" class="st3 st4 st5">w</tspan><tspan x="23.5" y="0" class="st3 st4 st5">y</tspan><tspan x="31.8" y="0" class="st3 st4 st5">a</tspan><tspan x="40.2" y="0" class="st3 st4 st5">n</tspan><tspan x="49.9" y="0" class="st3 st4 st5">e</tspan><tspan x="58.2" y="0" class="st3 st4 st5"> </tspan><tspan x="63.7" y="0" class="st3 st4 st5">W</tspan><tspan x="78.9" y="0" class="st3 st4 st5">a</tspan><tspan x="87.3" y="0" class="st3 st4 st5">d</tspan><tspan x="97" y="0" class="st3 st4 st5">e</tspan><tspan x="105.3" y="0" class="st3 st4 st5">,</tspan><tspan x="109.5" y="0" class="st3 st4 st5 st7"> </tspan><tspan x="116.4" y="0" class="st3 st4 st5">S</tspan><tspan x="127.4" y="0" class="st3 st4 st5">G</tspan></text>
	</g>
</g>
<g>
	<defs>
		<rect id="SVGID_21_" y="296.1" width="460.6" height="21.8"/>
	</defs>
	<clipPath id="SVGID_22_">
		<use xlink:href="#SVGID_21_"  style="overflow:visible;"/>
	</clipPath>
	<g class="st16">
		<text transform="matrix(0.7849 0 0 1 33.2976 313.7039)"><tspan x="0" y="0" class="st3 st4 st5">D</tspan><tspan x="11.1" y="0" class="st3 st4 st5">w</tspan><tspan x="23.5" y="0" class="st3 st4 st5">i</tspan><tspan x="27.7" y="0" class="st3 st4 st5">g</tspan><tspan x="37.4" y="0" class="st3 st4 st5">h</tspan><tspan x="47" y="0" class="st3 st4 st5">t</tspan><tspan x="52.6" y="0" class="st3 st4 st5"> </tspan><tspan x="56.7" y="0" class="st3 st4 st5">H</tspan><tspan x="69.2" y="0" class="st3 st4 st5">o</tspan><tspan x="78.9" y="0" class="st3 st4 st5">w</tspan><tspan x="91.3" y="0" class="st3 st4 st5">a</tspan><tspan x="99.6" y="0" class="st3 st4 st5">r</tspan><tspan x="105.2" y="0" class="st3 st4 st5">d</tspan><tspan x="114.9" y="0" class="st3 st4 st5">,</tspan><tspan x="119" y="0" class="st3 st4 st5"> </tspan><tspan x="124.6" y="0" class="st3 st4 st5">C</tspan></text>
	</g>
</g>
<g>
	<defs>
		<rect id="SVGID_23_" y="274.3" width="396.2" height="21.8"/>
	</defs>
	<clipPath id="SVGID_24_">
		<use xlink:href="#SVGID_23_"  style="overflow:visible;"/>
	</clipPath>
	<g class="st17">
		<text transform="matrix(0.7849 0 0 1 54.907 291.9061)"><tspan x="0" y="0" class="st3 st4 st5">C</tspan><tspan x="12.5" y="0" class="st3 st4 st5">h</tspan><tspan x="22.1" y="0" class="st3 st4 st5">r</tspan><tspan x="27.7" y="0" class="st3 st4 st5">i</tspan><tspan x="31.8" y="0" class="st3 st4 st5">s</tspan><tspan x="40.1" y="0" class="st3 st4 st5 st9"> </tspan><tspan x="42.9" y="0" class="st3 st4 st5">P</tspan><tspan x="54" y="0" class="st3 st4 st5">a</tspan><tspan x="62.3" y="0" class="st3 st4 st5">u</tspan><tspan x="72" y="0" class="st3 st4 st5">l</tspan><tspan x="76.1" y="0" class="st3 st4 st5">,</tspan><tspan x="80.3" y="0" class="st3 st4 st5"> </tspan><tspan x="85.8" y="0" class="st3 st4 st5">P</tspan><tspan x="96.9" y="0" class="st3 st4 st5">G</tspan></text>
	</g>
</g>
<g>
	<defs>
		<rect id="SVGID_25_" y="252.5" width="521.6" height="21.8"/>
	</defs>
	<clipPath id="SVGID_26_">
		<use xlink:href="#SVGID_25_"  style="overflow:visible;"/>
	</clipPath>
	<g class="st18">
		<text transform="matrix(0.7849 0 0 1 13.2478 270.1097)"><tspan x="0" y="0" class="st3 st4 st5">C</tspan><tspan x="12.5" y="0" class="st3 st4 st5">h</tspan><tspan x="22.1" y="0" class="st3 st4 st5">a</tspan><tspan x="30.5" y="0" class="st3 st4 st5">n</tspan><tspan x="40.2" y="0" class="st3 st4 st5">d</tspan><tspan x="49.9" y="0" class="st3 st4 st5">l</tspan><tspan x="54" y="0" class="st3 st4 st5">e</tspan><tspan x="62.3" y="0" class="st3 st4 st5">r</tspan><tspan x="67.9" y="0" class="st3 st4 st5"> </tspan><tspan x="72" y="0" class="st3 st4 st5">P</tspan><tspan x="83.1" y="0" class="st3 st4 st5">a</tspan><tspan x="91.4" y="0" class="st3 st4 st5">rs</tspan><tspan x="105.3" y="0" class="st3 st4 st5">o</tspan><tspan x="115" y="0" class="st3 st4 st5">n</tspan><tspan x="124.6" y="0" class="st3 st4 st5">s</tspan><tspan x="132.9" y="0" class="st3 st4 st5">, </tspan><tspan x="141.3" y="0" class="st3 st4 st5">S</tspan><tspan x="152.3" y="0" class="st3 st4 st5">F</tspan></text>
	</g>
</g>
<g>
	<defs>
		<rect id="SVGID_27_" y="230.7" width="438.9" height="21.8"/>
	</defs>
	<clipPath id="SVGID_28_">
		<use xlink:href="#SVGID_27_"  style="overflow:visible;"/>
	</clipPath>
	<g class="st19">
		<text transform="matrix(0.7849 0 0 1 40.1775 248.3099)"><tspan x="0" y="0" class="st3 st4 st5">B</tspan><tspan x="11.1" y="0" class="st3 st4 st5">r</tspan><tspan x="16.6" y="0" class="st3 st4 st5">a</tspan><tspan x="24.9" y="0" class="st3 st4 st5">d</tspan><tspan x="34.6" y="0" class="st3 st4 st5">l</tspan><tspan x="38.8" y="0" class="st3 st4 st5">e</tspan><tspan x="47.1" y="0" class="st3 st4 st5">y</tspan><tspan x="55.4" y="0" class="st3 st4 st5"> </tspan><tspan x="61" y="0" class="st3 st4 st5">B</tspan><tspan x="72" y="0" class="st3 st4 st5">ea</tspan><tspan x="88.7" y="0" class="st3 st4 st5">l</tspan><tspan x="92.8" y="0" class="st3 st4 st5">,</tspan><tspan x="97" y="0" class="st3 st4 st5 st7"> </tspan><tspan x="103.9" y="0" class="st3 st4 st5">S</tspan><tspan x="115" y="0" class="st3 st4 st5">G</tspan></text>
	</g>
</g>
<g>
	<defs>
		<rect id="SVGID_29_" y="208.9" width="462.2" height="21.8"/>
	</defs>
	<clipPath id="SVGID_30_">
		<use xlink:href="#SVGID_29_"  style="overflow:visible;"/>
	</clipPath>
	<g class="st20">
		<text transform="matrix(0.7849 0 0 1 33.0427 226.5121)"><tspan x="0" y="0" class="st3 st4 st5">A</tspan><tspan x="11.1" y="0" class="st3 st4 st5">n</tspan><tspan x="20.8" y="0" class="st3 st4 st5">t</tspan><tspan x="26.3" y="0" class="st3 st4 st5">h</tspan><tspan x="36" y="0" class="st3 st4 st5">o</tspan><tspan x="45.7" y="0" class="st3 st4 st5">n</tspan><tspan x="55.3" y="0" class="st3 st4 st5">y</tspan><tspan x="63.6" y="0" class="st3 st4 st5 st9"> </tspan><tspan x="66.4" y="0" class="st3 st4 st5">D</tspan><tspan x="77.5" y="0" class="st3 st4 st5">a</tspan><tspan x="85.8" y="0" class="st3 st4 st5">v</tspan><tspan x="94.1" y="0" class="st3 st4 st5">i</tspan><tspan x="98.3" y="0" class="st3 st4 st5">s</tspan><tspan x="106.6" y="0" class="st3 st4 st5">,</tspan><tspan x="110.8" y="0" class="st3 st4 st5"> </tspan><tspan x="116.3" y="0" class="st3 st4 st5">P</tspan><tspan x="127.4" y="0" class="st3 st4 st5">F</tspan></text>
	</g>
</g>
<g>
	<defs>
		<rect id="SVGID_31_" y="187.1" width="442.6" height="21.8"/>
	</defs>
	<clipPath id="SVGID_32_">
		<use xlink:href="#SVGID_31_"  style="overflow:visible;"/>
	</clipPath>
	<g class="st21">
		<text transform="matrix(0.7849 0 0 1 39.5681 204.7152)"><tspan x="0" y="0" class="st3 st4 st5">D</tspan><tspan x="11.1" y="0" class="st3 st4 st5">e</tspan><tspan x="19.4" y="0" class="st3 st4 st5">rr</tspan><tspan x="30.5" y="0" class="st3 st4 st5">i</tspan><tspan x="34.6" y="0" class="st3 st4 st5">c</tspan><tspan x="42.9" y="0" class="st3 st4 st5">k</tspan><tspan x="51.3" y="0" class="st3 st4 st5 st7"> </tspan><tspan x="58.2" y="0" class="st3 st4 st5">R</tspan><tspan x="69.2" y="0" class="st3 st4 st5">o</tspan><tspan x="78.9" y="0" class="st3 st4 st5">s</tspan><tspan x="87.2" y="0" class="st3 st4 st5">e</tspan><tspan x="95.6" y="0" class="st3 st4 st5">,</tspan><tspan x="99.7" y="0" class="st3 st4 st5"> </tspan><tspan x="105.3" y="0" class="st3 st4 st5">P</tspan><tspan x="116.3" y="0" class="st3 st4 st5">G</tspan></text>
	</g>
</g>
<g>
	<defs>
		<rect id="SVGID_33_" y="165.3" width="391.2" height="21.8"/>
	</defs>
	<clipPath id="SVGID_34_">
		<use xlink:href="#SVGID_33_"  style="overflow:visible;"/>
	</clipPath>
	<g class="st22">
		<text transform="matrix(0.7849 0 0 1 56.8308 182.9154)"><tspan x="0" y="0" class="st3 st4 st5">M</tspan><tspan x="13.9" y="0" class="st3 st4 st5">a</tspan><tspan x="22.2" y="0" class="st3 st4 st5">r</tspan><tspan x="27.7" y="0" class="st3 st4 st5">c</tspan><tspan x="36" y="0" class="st3 st4 st5"> </tspan><tspan x="41.6" y="0" class="st3 st4 st5">G</tspan><tspan x="54" y="0" class="st3 st4 st5">a</tspan><tspan x="62.4" y="0" class="st3 st4 st5">s</tspan><tspan x="70.7" y="0" class="st3 st4 st5">o</tspan><tspan x="80.4" y="0" class="st3 st4 st5">l</tspan><tspan x="84.5" y="0" class="st3 st4 st5">,</tspan><tspan x="88.7" y="0" class="st3 st4 st5"> </tspan><tspan x="94.2" y="0" class="st3 st4 st5">C</tspan></text>
	</g>
</g>
<g>
	<defs>
		<rect id="SVGID_35_" y="143.5" width="412.9" height="21.8"/>
	</defs>
	<clipPath id="SVGID_36_">
		<use xlink:href="#SVGID_35_"  style="overflow:visible;"/>
	</clipPath>
	<g class="st23">
		<text transform="matrix(0.7849 0 0 1 48.865 161.1175)"><tspan x="0" y="0" class="st3 st4 st5">B</tspan><tspan x="11.1" y="0" class="st3 st4 st5">r</tspan><tspan x="16.6" y="0" class="st3 st4 st5">oo</tspan><tspan x="36" y="0" class="st3 st4 st5">k</tspan><tspan x="44.3" y="0" class="st3 st4 st5"> </tspan><tspan x="48.4" y="0" class="st3 st4 st5">L</tspan><tspan x="58.1" y="0" class="st3 st4 st5">o</tspan><tspan x="67.8" y="0" class="st3 st4 st5">p</tspan><tspan x="77.5" y="0" class="st3 st4 st5">e</tspan><tspan x="85.8" y="0" class="st3 st4 st5">z</tspan><tspan x="94.1" y="0" class="st3 st4 st5">,</tspan><tspan x="98.3" y="0" class="st3 st4 st5"> </tspan><tspan x="103.8" y="0" class="st3 st4 st5">C</tspan></text>
	</g>
</g>
<g>
	<defs>
		<rect id="SVGID_37_" y="121.7" width="402.8" height="21.8"/>
	</defs>
	<clipPath id="SVGID_38_">
		<use xlink:href="#SVGID_37_"  style="overflow:visible;"/>
	</clipPath>
	<g class="st24">
		<text transform="matrix(0.7849 0 0 1 52.7224 139.3197)"><tspan x="0" y="0" class="st3 st4 st5">K</tspan><tspan x="11.1" y="0" class="st3 st4 st5">e</tspan><tspan x="19.4" y="0" class="st3 st4 st5">v</tspan><tspan x="27.7" y="0" class="st3 st4 st5">i</tspan><tspan x="31.9" y="0" class="st3 st4 st5">n</tspan><tspan x="41.6" y="0" class="st3 st4 st5"> </tspan><tspan x="45.7" y="0" class="st3 st4 st5">L</tspan><tspan x="55.4" y="0" class="st3 st4 st5">o</tspan><tspan x="65.1" y="0" class="st3 st4 st5">v</tspan><tspan x="73.4" y="0" class="st3 st4 st5">e</tspan><tspan x="81.7" y="0" class="st3 st4 st5">,</tspan><tspan x="85.9" y="0" class="st3 st4 st5"> </tspan><tspan x="91.4" y="0" class="st3 st4 st5">P</tspan><tspan x="102.5" y="0" class="st3 st4 st5">F</tspan></text>
	</g>
</g>
<g>
	<defs>
		<rect id="SVGID_39_" y="99.9" width="473" height="21.8"/>
	</defs>
	<clipPath id="SVGID_40_">
		<use xlink:href="#SVGID_39_"  style="overflow:visible;"/>
	</clipPath>
	<g class="st25">
		<text transform="matrix(0.7849 0 0 1 29.0603 117.5228)"><tspan x="0" y="0" class="st3 st4 st5">Ni</tspan><tspan x="16.6" y="0" class="st3 st4 st5">c</tspan><tspan x="24.9" y="0" class="st3 st4 st5">o</tspan><tspan x="34.6" y="0" class="st3 st4 st5">l</tspan><tspan x="38.8" y="0" class="st3 st4 st5">a</tspan><tspan x="47.1" y="0" class="st3 st4 st5">s</tspan><tspan x="55.4" y="0" class="st3 st4 st5"> </tspan><tspan x="59.6" y="0" class="st3 st4 st5">B</tspan><tspan x="70.6" y="0" class="st3 st4 st5">a</tspan><tspan x="79" y="0" class="st3 st4 st5">t</tspan><tspan x="84.5" y="0" class="st3 st4 st5">u</tspan><tspan x="94.2" y="0" class="st3 st4 st5">m</tspan><tspan x="108" y="0" class="st3 st4 st5">,</tspan><tspan x="112.2" y="0" class="st3 st4 st5"> </tspan><tspan x="117.7" y="0" class="st3 st4 st5">S</tspan><tspan x="128.8" y="0" class="st3 st4 st5">G</tspan></text>
	</g>
</g>
<g>
	<defs>
		<rect id="SVGID_41_" y="78.1" width="521.6" height="21.8"/>
	</defs>
	<clipPath id="SVGID_42_">
		<use xlink:href="#SVGID_41_"  style="overflow:visible;"/>
	</clipPath>
	<g class="st26">
		<text transform="matrix(0.7849 0 0 1 7.2009 95.724)"><tspan x="0" y="0" class="st3 st4 st5">L</tspan><tspan x="9.7" y="0" class="st3 st4 st5">a</tspan><tspan x="18" y="0" class="st3 st4 st5">M</tspan><tspan x="31.9" y="0" class="st3 st4 st5">a</tspan><tspan x="40.2" y="0" class="st3 st4 st5">r</tspan><tspan x="45.7" y="0" class="st3 st4 st5">c</tspan><tspan x="54" y="0" class="st3 st4 st5">u</tspan><tspan x="63.7" y="0" class="st3 st4 st5">s</tspan><tspan x="72" y="0" class="st3 st4 st5"> </tspan><tspan x="77.6" y="0" class="st3 st4 st5">A</tspan><tspan x="88.6" y="0" class="st3 st4 st5">l</tspan><tspan x="92.8" y="0" class="st3 st4 st5">d</tspan><tspan x="102.5" y="0" class="st3 st4 st5">r</tspan><tspan x="108" y="0" class="st3 st4 st5">i</tspan><tspan x="112.2" y="0" class="st3 st4 st5">d</tspan><tspan x="121.9" y="0" class="st3 st4 st5">g</tspan><tspan x="131.6" y="0" class="st3 st4 st5">e</tspan><tspan x="139.9" y="0" class="st3 st4 st5">,</tspan><tspan x="144.1" y="0" class="st3 st4 st5"> </tspan><tspan x="149.6" y="0" class="st3 st4 st5">P</tspan><tspan x="160.7" y="0" class="st3 st4 st5">F</tspan></text>
	</g>
</g>
<g>
	<defs>
		<rect id="SVGID_43_" y="56.3" width="423" height="21.8"/>
	</defs>
	<clipPath id="SVGID_44_">
		<use xlink:href="#SVGID_43_"  style="overflow:visible;"/>
	</clipPath>
	<g class="st27">
		<text transform="matrix(0.7849 0 0 1 46.0945 73.9251)"><tspan x="0" y="0" class="st3 st4 st5">B</tspan><tspan x="11.1" y="0" class="st3 st4 st5">l</tspan><tspan x="15.2" y="0" class="st3 st4 st5">a</tspan><tspan x="23.5" y="0" class="st3 st4 st5">k</tspan><tspan x="31.8" y="0" class="st3 st4 st5">e</tspan><tspan x="40.1" y="0" class="st3 st4 st5"> </tspan><tspan x="45.7" y="0" class="st3 st4 st5">G</tspan><tspan x="58.1" y="0" class="st3 st4 st5">r</tspan><tspan x="63.7" y="0" class="st3 st4 st5">i</tspan><tspan x="67.8" y="0" class="st3 st4 st5">ff</tspan><tspan x="78.9" y="0" class="st3 st4 st5">in</tspan><tspan x="92.7" y="0" class="st3 st4 st5">,</tspan><tspan x="96.8" y="0" class="st3 st4 st5 st9"> </tspan><tspan x="99.6" y="0" class="st3 st4 st5">P</tspan><tspan x="110.7" y="0" class="st3 st4 st5">F</tspan></text>
	</g>
</g>
<g>
	<defs>
		<rect id="SVGID_45_" y="-0.7" width="521.6" height="533"/>
	</defs>
	<clipPath id="SVGID_46_">
		<use xlink:href="#SVGID_45_"  style="overflow:visible;"/>
	</clipPath>
	<g class="st28">
		<text transform="matrix(0.7849 0 0 1 85.8513 31.8451)"><tspan x="0" y="0" class="st3 st4 st29 st30">T</tspan><tspan x="8.3" y="0" class="st3 st4 st29">o</tspan><tspan x="19.4" y="0" class="st3 st4 st29">p</tspan><tspan x="30.5" y="0" class="st3 st4 st29 st7"> </tspan><tspan x="37.4" y="0" class="st3 st4 st29">20</tspan><tspan x="59.5" y="0" class="st3 st4 st29"> </tspan><tspan x="65.1" y="0" class="st3 st4 st29">P</tspan><tspan x="77.5" y="0" class="st3 st4 st29">a</tspan><tspan x="88.6" y="0" class="st3 st4 st29">i</tspan><tspan x="92.8" y="0" class="st3 st4 st29">d</tspan><tspan x="103.9" y="0" class="st3 st4 st29 st7"> </tspan><tspan x="110.8" y="0" class="st3 st4 st29">N</tspan><tspan x="124.6" y="0" class="st3 st4 st29">B</tspan><tspan x="138.5" y="0" class="st3 st4 st29">A</tspan><tspan x="150.9" y="0" class="st3 st4 st29 st7"> </tspan><tspan x="157.9" y="0" class="st3 st4 st29">P</tspan><tspan x="170.3" y="0" class="st3 st4 st29">l</tspan><tspan x="174.5" y="0" class="st3 st4 st29">a</tspan><tspan x="185.6" y="0" class="st3 st4 st29">y</tspan><tspan x="195.2" y="0" class="st3 st4 st29">e</tspan><tspan x="206.3" y="0" class="st3 st4 st29">r</tspan><tspan x="213.2" y="0" class="st3 st4 st29">s</tspan><tspan x="222.9" y="0" class="st3 st4 st29">, </tspan><tspan x="234" y="0" class="st3 st4 st29">2016</tspan><tspan x="278.2" y="0" class="st3 st4 st29"> </tspan><tspan x="283.8" y="0" class="st3 st4 st29">SA</tspan><tspan x="308.7" y="0" class="st3 st4 st29">L</tspan><tspan x="319.8" y="0" class="st3 st4 st29">A</tspan><tspan x="332.2" y="0" class="st3 st4 st29">R</tspan><tspan x="344.7" y="0" class="st3 st4 st29">Y</tspan><tspan x="357.1" y="0" class="st3 st4 st29">(</tspan><tspan x="362.7" y="0" class="st3 st4 st29">P</tspan><tspan x="375.1" y="0" class="st3 st4 st29">e</tspan><tspan x="386.2" y="0" class="st3 st4 st29">r</tspan><tspan x="393.1" y="0" class="st3 st4 st29 st7"> </tspan><tspan x="400" y="0" class="st3 st4 st29 st30">Y</tspan><tspan x="409.7" y="0" class="st3 st4 st29">ea</tspan><tspan x="431.9" y="0" class="st3 st4 st29">r</tspan><tspan x="438.8" y="0" class="st3 st4 st29">)</tspan></text>
	</g>
	<rect x="0.5" class="st31" width="520.5" height="531.6"/>
</g>
</svg>
