<?xml version="1.0" encoding="utf-8"?>
<!-- Generator: Adobe Illustrator 20.1.0, SVG Export Plug-In . SVG Version: 6.00 Build 0)  -->
<svg version="1.1" id="Layer_1" xmlns="http://www.w3.org/2000/svg" xmlns:xlink="http://www.w3.org/1999/xlink" x="0px" y="0px"
	 viewBox="0 0 571.2 445.9" style="enable-background:new 0 0 571.2 445.9;" xml:space="preserve">
<style type="text/css">
	.st0{clip-path:url(#SVGID_2_);fill:#71AD46;}
	.st1{clip-path:url(#SVGID_4_);fill:none;stroke:#D9D9D8;stroke-linejoin:round;stroke-miterlimit:10;}
	.st2{clip-path:url(#SVGID_4_);}
	.st3{fill:#595A5A;}
	.st4{font-family:'HelveticaNeue';}
	.st5{font-size:13.8996px;}
	.st6{clip-path:url(#SVGID_6_);}
	.st7{letter-spacing:1;}
	.st8{clip-path:url(#SVGID_8_);}
	.st9{letter-spacing:-1;}
	.st10{clip-path:url(#SVGID_10_);}
	.st11{clip-path:url(#SVGID_12_);}
	.st12{clip-path:url(#SVGID_14_);}
	.st13{clip-path:url(#SVGID_16_);}
	.st14{clip-path:url(#SVGID_18_);}
	.st15{clip-path:url(#SVGID_20_);}
	.st16{clip-path:url(#SVGID_22_);}
	.st17{clip-path:url(#SVGID_24_);}
	.st18{clip-path:url(#SVGID_26_);}
	.st19{clip-path:url(#SVGID_28_);}
	.st20{clip-path:url(#SVGID_30_);}
	.st21{clip-path:url(#SVGID_32_);}
	.st22{clip-path:url(#SVGID_34_);}
	.st23{clip-path:url(#SVGID_36_);}
	.st24{clip-path:url(#SVGID_38_);}
	.st25{clip-path:url(#SVGID_40_);}
	.st26{clip-path:url(#SVGID_42_);}
	.st27{clip-path:url(#SVGID_44_);}
	.st28{clip-path:url(#SVGID_46_);}
	.st29{font-size:16.2162px;}
	.st30{letter-spacing:-1.9;}
	.st31{clip-path:url(#SVGID_46_);fill:none;stroke:#D9D9D8;stroke-linejoin:round;stroke-miterlimit:10;}
</style>
<g>
	<defs>
		<rect id="SVGID_1_" x="166.6" y="47.5" width="349.9" height="364.9"/>
	</defs>
	<clipPath id="SVGID_2_">
		<use xlink:href="#SVGID_1_"  style="overflow:visible;"/>
	</clipPath>
	<path class="st0" d="M342.7,60.2H166.6v-6.9h176.1V60.2z M346.3,78.8H166.6v-6.9h179.7V78.8z M348.7,96.1H166.6v-5.8h182.1V96.1z
		 M351,114.7H166.6v-6.9H351V114.7z M351,133.2H166.6v-6.9H351V133.2z M351,151.7H166.6v-6.9H351V151.7z M353.4,169.1H166.6v-5.8
		h186.8V169.1z M359.4,187.6H166.6v-6.9h192.8V187.6z M359.4,206.2H166.6v-6.9h192.8V206.2z M359.4,224.7H166.6v-6.9h192.8V224.7z
		 M366.5,242.1H166.6v-5.8h199.9V242.1z M368.9,260.6H166.6v-6.9h202.3V260.6z M368.9,279.2H166.6v-6.9h202.3V279.2z M373.7,297.7
		H166.6v-6.9h207.1V297.7z M379.6,315.1h-213v-5.8h213V315.1z M380.8,333.6H166.6v-6.9h214.2V333.6z M385.6,352.1h-219v-6.9h219
		V352.1z M398.6,369.5h-232v-5.8h232V369.5z M398.6,388h-232v-5.8h232V388z M436.7,406.6H166.6v-6.9h270.1V406.6z"/>
</g>
<g>
	<defs>
		<rect id="SVGID_3_" width="571.2" height="445.9"/>
	</defs>
	<clipPath id="SVGID_4_">
		<use xlink:href="#SVGID_3_"  style="overflow:visible;"/>
	</clipPath>
	<line class="st1" x1="167.2" y1="412.9" x2="167.2" y2="48.1"/>
	<g class="st2">
		<text transform="matrix(1.0273 0 0 1 158.3122 435.1559)"><tspan x="0" y="0" class="st3 st4 st5">$</tspan><tspan x="8.1" y="0" class="st3 st4 st5">0</tspan></text>
	</g>
	<g class="st2">
		<text transform="matrix(1.0273 0 0 1 212.3406 435.1559)"><tspan x="0" y="0" class="st3 st4 st5">$10</tspan><tspan x="24.3" y="0" class="st3 st4 st5">,</tspan><tspan x="27.8" y="0" class="st3 st4 st5">000</tspan><tspan x="52.1" y="0" class="st3 st4 st5">,</tspan><tspan x="55.6" y="0" class="st3 st4 st5">00</tspan><tspan x="71.8" y="0" class="st3 st4 st5">0</tspan></text>
	</g>
	<g class="st2">
		<text transform="matrix(1.0273 0 0 1 299.6882 435.1559)"><tspan x="0" y="0" class="st3 st4 st5">$20</tspan><tspan x="24.3" y="0" class="st3 st4 st5">,</tspan><tspan x="27.8" y="0" class="st3 st4 st5">000</tspan><tspan x="52.1" y="0" class="st3 st4 st5">,</tspan><tspan x="55.6" y="0" class="st3 st4 st5">00</tspan><tspan x="71.8" y="0" class="st3 st4 st5">0</tspan></text>
	</g>
	<g class="st2">
		<text transform="matrix(1.0273 0 0 1 387.0378 435.1559)"><tspan x="0" y="0" class="st3 st4 st5">$30</tspan><tspan x="24.3" y="0" class="st3 st4 st5">,</tspan><tspan x="27.8" y="0" class="st3 st4 st5">000</tspan><tspan x="52.1" y="0" class="st3 st4 st5">,</tspan><tspan x="55.6" y="0" class="st3 st4 st5">00</tspan><tspan x="71.8" y="0" class="st3 st4 st5">0</tspan></text>
	</g>
	<g class="st2">
		<text transform="matrix(1.0273 0 0 1 474.3845 435.1559)"><tspan x="0" y="0" class="st3 st4 st5">$40</tspan><tspan x="24.3" y="0" class="st3 st4 st5">,</tspan><tspan x="27.8" y="0" class="st3 st4 st5">000</tspan><tspan x="52.1" y="0" class="st3 st4 st5">,</tspan><tspan x="55.6" y="0" class="st3 st4 st5">00</tspan><tspan x="71.8" y="0" class="st3 st4 st5">0</tspan></text>
	</g>
</g>
<g>
	<defs>
		<rect id="SVGID_5_" y="394.2" width="506.1" height="18.2"/>
	</defs>
	<clipPath id="SVGID_6_">
		<use xlink:href="#SVGID_5_"  style="overflow:visible;"/>
	</clipPath>
	<g class="st6">
		<text transform="matrix(1.0273 0 0 1 36.1697 408.9254)"><tspan x="0" y="0" class="st3 st4 st5">L</tspan><tspan x="8.1" y="0" class="st3 st4 st5">e</tspan><tspan x="15.1" y="0" class="st3 st4 st5">B</tspan><tspan x="24.3" y="0" class="st3 st4 st5">r</tspan><tspan x="29" y="0" class="st3 st4 st5">o</tspan><tspan x="37.1" y="0" class="st3 st4 st5">n</tspan><tspan x="45.2" y="0" class="st3 st4 st5"> </tspan><tspan x="48.7" y="0" class="st3 st4 st5">J</tspan><tspan x="55.6" y="0" class="st3 st4 st5">a</tspan><tspan x="62.6" y="0" class="st3 st4 st5">m</tspan><tspan x="74.2" y="0" class="st3 st4 st5">e</tspan><tspan x="81.1" y="0" class="st3 st4 st5">s</tspan><tspan x="88.1" y="0" class="st3 st4 st5">,</tspan><tspan x="91.6" y="0" class="st3 st4 st5 st7"> </tspan><tspan x="97.4" y="0" class="st3 st4 st5">S</tspan><tspan x="106.6" y="0" class="st3 st4 st5">F</tspan></text>
	</g>
</g>
<g>
	<defs>
		<rect id="SVGID_7_" y="376" width="472" height="18.2"/>
	</defs>
	<clipPath id="SVGID_8_">
		<use xlink:href="#SVGID_7_"  style="overflow:visible;"/>
	</clipPath>
	<g class="st8">
		<text transform="matrix(1.0273 0 0 1 47.8191 390.6881)"><tspan x="0" y="0" class="st3 st4 st5">M</tspan><tspan x="11.6" y="0" class="st3 st4 st5">i</tspan><tspan x="15.1" y="0" class="st3 st4 st5">k</tspan><tspan x="22" y="0" class="st3 st4 st5">e</tspan><tspan x="29" y="0" class="st3 st4 st5"> </tspan><tspan x="33.6" y="0" class="st3 st4 st5">C</tspan><tspan x="44" y="0" class="st3 st4 st5">o</tspan><tspan x="52.2" y="0" class="st3 st4 st5">n</tspan><tspan x="60.3" y="0" class="st3 st4 st5">l</tspan><tspan x="63.7" y="0" class="st3 st4 st5">e</tspan><tspan x="70.7" y="0" class="st3 st4 st5 st9">y</tspan><tspan x="76.5" y="0" class="st3 st4 st5">, </tspan><tspan x="83.5" y="0" class="st3 st4 st5">P</tspan><tspan x="92.7" y="0" class="st3 st4 st5">G</tspan></text>
	</g>
</g>
<g>
	<defs>
		<rect id="SVGID_9_" y="357.7" width="403.7" height="18.2"/>
	</defs>
	<clipPath id="SVGID_10_">
		<use xlink:href="#SVGID_9_"  style="overflow:visible;"/>
	</clipPath>
	<g class="st10">
		<text transform="matrix(1.0273 0 0 1 69.9109 372.4508)"><tspan x="0" y="0" class="st3 st4 st5">A</tspan><tspan x="9.3" y="0" class="st3 st4 st5">l</tspan><tspan x="12.7" y="0" class="st3 st4 st5"> </tspan><tspan x="16.2" y="0" class="st3 st4 st5">H</tspan><tspan x="26.6" y="0" class="st3 st4 st5">o</tspan><tspan x="34.7" y="0" class="st3 st4 st5">r</tspan><tspan x="39.3" y="0" class="st3 st4 st5">f</tspan><tspan x="44" y="0" class="st3 st4 st5">o</tspan><tspan x="52.1" y="0" class="st3 st4 st5">r</tspan><tspan x="56.7" y="0" class="st3 st4 st5">d</tspan><tspan x="64.8" y="0" class="st3 st4 st5">,</tspan><tspan x="68.3" y="0" class="st3 st4 st5 st9"> </tspan><tspan x="70.6" y="0" class="st3 st4 st5">C</tspan></text>
	</g>
</g>
<g>
	<defs>
		<rect id="SVGID_11_" y="339.5" width="481.4" height="18.2"/>
	</defs>
	<clipPath id="SVGID_12_">
		<use xlink:href="#SVGID_11_"  style="overflow:visible;"/>
	</clipPath>
	<g class="st11">
		<text transform="matrix(1.0273 0 0 1 43.8679 354.2144)"><tspan x="0" y="0" class="st3 st4 st5">D</tspan><tspan x="9.3" y="0" class="st3 st4 st5">i</tspan><tspan x="12.7" y="0" class="st3 st4 st5">r</tspan><tspan x="17.4" y="0" class="st3 st4 st5">k</tspan><tspan x="24.3" y="0" class="st3 st4 st5"> </tspan><tspan x="28.9" y="0" class="st3 st4 st5">N</tspan><tspan x="39.3" y="0" class="st3 st4 st5">o</tspan><tspan x="47.5" y="0" class="st3 st4 st5">w</tspan><tspan x="57.9" y="0" class="st3 st4 st5">i</tspan><tspan x="61.3" y="0" class="st3 st4 st5">t</tspan><tspan x="66" y="0" class="st3 st4 st5">z</tspan><tspan x="72.9" y="0" class="st3 st4 st5">k</tspan><tspan x="79.9" y="0" class="st3 st4 st5">i</tspan><tspan x="83.3" y="0" class="st3 st4 st5">,</tspan><tspan x="86.8" y="0" class="st3 st4 st5 st9"> </tspan><tspan x="89.1" y="0" class="st3 st4 st5">P</tspan><tspan x="98.4" y="0" class="st3 st4 st5">F</tspan></text>
	</g>
</g>
<g>
	<defs>
		<rect id="SVGID_13_" y="321.3" width="559.2" height="18.2"/>
	</defs>
	<clipPath id="SVGID_14_">
		<use xlink:href="#SVGID_13_"  style="overflow:visible;"/>
	</clipPath>
	<g class="st12">
		<text transform="matrix(1.0273 0 0 1 17.8015 335.9781)"><tspan x="0" y="0" class="st3 st4 st5">C</tspan><tspan x="10.4" y="0" class="st3 st4 st5">a</tspan><tspan x="17.4" y="0" class="st3 st4 st5">r</tspan><tspan x="22" y="0" class="st3 st4 st5">m</tspan><tspan x="33.6" y="0" class="st3 st4 st5">e</tspan><tspan x="40.6" y="0" class="st3 st4 st5">l</tspan><tspan x="44" y="0" class="st3 st4 st5">o</tspan><tspan x="52.2" y="0" class="st3 st4 st5"> </tspan><tspan x="56.8" y="0" class="st3 st4 st5">A</tspan><tspan x="66" y="0" class="st3 st4 st5">n</tspan><tspan x="74.1" y="0" class="st3 st4 st5">t</tspan><tspan x="78.8" y="0" class="st3 st4 st5">h</tspan><tspan x="86.8" y="0" class="st3 st4 st5">o</tspan><tspan x="94.9" y="0" class="st3 st4 st5">n</tspan><tspan x="103" y="0" class="st3 st4 st5 st9">y</tspan><tspan x="108.8" y="0" class="st3 st4 st5">,</tspan><tspan x="112.3" y="0" class="st3 st4 st5 st9"> </tspan><tspan x="114.6" y="0" class="st3 st4 st5">S</tspan><tspan x="123.9" y="0" class="st3 st4 st5">F</tspan></text>
	</g>
</g>
<g>
	<defs>
		<rect id="SVGID_15_" y="303" width="510.1" height="18.2"/>
	</defs>
	<clipPath id="SVGID_16_">
		<use xlink:href="#SVGID_15_"  style="overflow:visible;"/>
	</clipPath>
	<g class="st13">
		<text transform="matrix(1.0273 0 0 1 34.324 317.7408)"><tspan x="0" y="0" class="st3 st4 st5">Da</tspan><tspan x="16.2" y="0" class="st3 st4 st5">m</tspan><tspan x="27.8" y="0" class="st3 st4 st5">i</tspan><tspan x="31.3" y="0" class="st3 st4 st5">a</tspan><tspan x="38.2" y="0" class="st3 st4 st5">n</tspan><tspan x="46.3" y="0" class="st3 st4 st5"> </tspan><tspan x="51" y="0" class="st3 st4 st5">Lill</tspan><tspan x="69.4" y="0" class="st3 st4 st5">a</tspan><tspan x="76.4" y="0" class="st3 st4 st5">r</tspan><tspan x="81" y="0" class="st3 st4 st5">d</tspan><tspan x="89.1" y="0" class="st3 st4 st5">, </tspan><tspan x="96.1" y="0" class="st3 st4 st5">P</tspan><tspan x="105.3" y="0" class="st3 st4 st5">G</tspan></text>
	</g>
</g>
<g>
	<defs>
		<rect id="SVGID_17_" y="284.8" width="441" height="18.2"/>
	</defs>
	<clipPath id="SVGID_18_">
		<use xlink:href="#SVGID_17_"  style="overflow:visible;"/>
	</clipPath>
	<g class="st14">
		<text transform="matrix(1.0273 0 0 1 57.7429 299.5035)"><tspan x="0" y="0" class="st3 st4 st5">C</tspan><tspan x="10.4" y="0" class="st3 st4 st5">h</tspan><tspan x="18.5" y="0" class="st3 st4 st5">r</tspan><tspan x="23.2" y="0" class="st3 st4 st5">i</tspan><tspan x="26.6" y="0" class="st3 st4 st5">s</tspan><tspan x="33.6" y="0" class="st3 st4 st5 st9"> </tspan><tspan x="35.9" y="0" class="st3 st4 st5">B</tspan><tspan x="45.2" y="0" class="st3 st4 st5">o</tspan><tspan x="53.3" y="0" class="st3 st4 st5">s</tspan><tspan x="60.2" y="0" class="st3 st4 st5">h</tspan><tspan x="68.3" y="0" class="st3 st4 st5">,</tspan><tspan x="71.8" y="0" class="st3 st4 st5"> </tspan><tspan x="76.4" y="0" class="st3 st4 st5">P</tspan><tspan x="85.7" y="0" class="st3 st4 st5">F</tspan></text>
	</g>
</g>
<g>
	<defs>
		<rect id="SVGID_19_" y="266.5" width="513.2" height="18.2"/>
	</defs>
	<clipPath id="SVGID_20_">
		<use xlink:href="#SVGID_19_"  style="overflow:visible;"/>
	</clipPath>
	<g class="st15">
		<text transform="matrix(1.0273 0 0 1 33.8122 281.2672)"><tspan x="0" y="0" class="st3 st4 st5">D</tspan><tspan x="9.3" y="0" class="st3 st4 st5">w</tspan><tspan x="19.7" y="0" class="st3 st4 st5">y</tspan><tspan x="26.6" y="0" class="st3 st4 st5">a</tspan><tspan x="33.6" y="0" class="st3 st4 st5">n</tspan><tspan x="41.7" y="0" class="st3 st4 st5">e</tspan><tspan x="48.7" y="0" class="st3 st4 st5"> </tspan><tspan x="53.3" y="0" class="st3 st4 st5">W</tspan><tspan x="66.1" y="0" class="st3 st4 st5">a</tspan><tspan x="73" y="0" class="st3 st4 st5">d</tspan><tspan x="81.1" y="0" class="st3 st4 st5">e</tspan><tspan x="88.1" y="0" class="st3 st4 st5">,</tspan><tspan x="91.6" y="0" class="st3 st4 st5 st7"> </tspan><tspan x="97.4" y="0" class="st3 st4 st5">S</tspan><tspan x="106.6" y="0" class="st3 st4 st5">G</tspan></text>
	</g>
</g>
<g>
	<defs>
		<rect id="SVGID_21_" y="248.3" width="504.4" height="18.2"/>
	</defs>
	<clipPath id="SVGID_22_">
		<use xlink:href="#SVGID_21_"  style="overflow:visible;"/>
	</clipPath>
	<g class="st16">
		<text transform="matrix(1.0273 0 0 1 36.4607 263.0309)"><tspan x="0" y="0" class="st3 st4 st5">D</tspan><tspan x="9.3" y="0" class="st3 st4 st5">w</tspan><tspan x="19.7" y="0" class="st3 st4 st5">i</tspan><tspan x="23.2" y="0" class="st3 st4 st5">g</tspan><tspan x="31.3" y="0" class="st3 st4 st5">h</tspan><tspan x="39.4" y="0" class="st3 st4 st5">t</tspan><tspan x="44" y="0" class="st3 st4 st5"> </tspan><tspan x="47.5" y="0" class="st3 st4 st5">H</tspan><tspan x="57.9" y="0" class="st3 st4 st5">o</tspan><tspan x="66" y="0" class="st3 st4 st5">w</tspan><tspan x="76.4" y="0" class="st3 st4 st5">a</tspan><tspan x="83.4" y="0" class="st3 st4 st5">r</tspan><tspan x="88" y="0" class="st3 st4 st5">d</tspan><tspan x="96.1" y="0" class="st3 st4 st5">,</tspan><tspan x="99.6" y="0" class="st3 st4 st5"> </tspan><tspan x="104.2" y="0" class="st3 st4 st5">C</tspan></text>
	</g>
</g>
<g>
	<defs>
		<rect id="SVGID_23_" y="230.1" width="433.8" height="18.2"/>
	</defs>
	<clipPath id="SVGID_24_">
		<use xlink:href="#SVGID_23_"  style="overflow:visible;"/>
	</clipPath>
	<g class="st17">
		<text transform="matrix(1.0273 0 0 1 60.1228 244.7935)"><tspan x="0" y="0" class="st3 st4 st5">C</tspan><tspan x="10.4" y="0" class="st3 st4 st5">h</tspan><tspan x="18.5" y="0" class="st3 st4 st5">r</tspan><tspan x="23.2" y="0" class="st3 st4 st5">i</tspan><tspan x="26.6" y="0" class="st3 st4 st5">s</tspan><tspan x="33.6" y="0" class="st3 st4 st5 st9"> </tspan><tspan x="35.9" y="0" class="st3 st4 st5">P</tspan><tspan x="45.2" y="0" class="st3 st4 st5">a</tspan><tspan x="52.1" y="0" class="st3 st4 st5">u</tspan><tspan x="60.2" y="0" class="st3 st4 st5">l</tspan><tspan x="63.7" y="0" class="st3 st4 st5">,</tspan><tspan x="67.2" y="0" class="st3 st4 st5"> </tspan><tspan x="71.8" y="0" class="st3 st4 st5">P</tspan><tspan x="81.1" y="0" class="st3 st4 st5">G</tspan></text>
	</g>
</g>
<g>
	<defs>
		<rect id="SVGID_25_" y="211.8" width="571.2" height="18.2"/>
	</defs>
	<clipPath id="SVGID_26_">
		<use xlink:href="#SVGID_25_"  style="overflow:visible;"/>
	</clipPath>
	<g class="st18">
		<text transform="matrix(1.0273 0 0 1 14.5056 226.5572)"><tspan x="0" y="0" class="st3 st4 st5">C</tspan><tspan x="10.4" y="0" class="st3 st4 st5">h</tspan><tspan x="18.5" y="0" class="st3 st4 st5">a</tspan><tspan x="25.5" y="0" class="st3 st4 st5">n</tspan><tspan x="33.6" y="0" class="st3 st4 st5">d</tspan><tspan x="41.7" y="0" class="st3 st4 st5">l</tspan><tspan x="45.2" y="0" class="st3 st4 st5">e</tspan><tspan x="52.2" y="0" class="st3 st4 st5">r</tspan><tspan x="56.8" y="0" class="st3 st4 st5"> </tspan><tspan x="60.3" y="0" class="st3 st4 st5">P</tspan><tspan x="69.5" y="0" class="st3 st4 st5">a</tspan><tspan x="76.5" y="0" class="st3 st4 st5">rs</tspan><tspan x="88.1" y="0" class="st3 st4 st5">o</tspan><tspan x="96.2" y="0" class="st3 st4 st5">n</tspan><tspan x="104.3" y="0" class="st3 st4 st5">s</tspan><tspan x="111.2" y="0" class="st3 st4 st5">, </tspan><tspan x="118.2" y="0" class="st3 st4 st5">S</tspan><tspan x="127.5" y="0" class="st3 st4 st5">F</tspan></text>
	</g>
</g>
<g>
	<defs>
		<rect id="SVGID_27_" y="193.6" width="480.6" height="18.2"/>
	</defs>
	<clipPath id="SVGID_28_">
		<use xlink:href="#SVGID_27_"  style="overflow:visible;"/>
	</clipPath>
	<g class="st19">
		<text transform="matrix(1.0273 0 0 1 43.9929 208.3189)"><tspan x="0" y="0" class="st3 st4 st5">B</tspan><tspan x="9.3" y="0" class="st3 st4 st5">r</tspan><tspan x="13.9" y="0" class="st3 st4 st5">a</tspan><tspan x="20.9" y="0" class="st3 st4 st5">d</tspan><tspan x="29" y="0" class="st3 st4 st5">l</tspan><tspan x="32.5" y="0" class="st3 st4 st5">e</tspan><tspan x="39.4" y="0" class="st3 st4 st5">y</tspan><tspan x="46.4" y="0" class="st3 st4 st5"> </tspan><tspan x="51" y="0" class="st3 st4 st5">B</tspan><tspan x="60.3" y="0" class="st3 st4 st5">ea</tspan><tspan x="74.2" y="0" class="st3 st4 st5">l</tspan><tspan x="77.7" y="0" class="st3 st4 st5">,</tspan><tspan x="81.2" y="0" class="st3 st4 st5 st7"> </tspan><tspan x="86.9" y="0" class="st3 st4 st5">S</tspan><tspan x="96.2" y="0" class="st3 st4 st5">G</tspan></text>
	</g>
</g>
<g>
	<defs>
		<rect id="SVGID_29_" y="175.4" width="506.1" height="18.2"/>
	</defs>
	<clipPath id="SVGID_30_">
		<use xlink:href="#SVGID_29_"  style="overflow:visible;"/>
	</clipPath>
	<g class="st20">
		<text transform="matrix(1.0273 0 0 1 36.1804 190.0841)"><tspan x="0" y="0" class="st3 st4 st5">A</tspan><tspan x="9.3" y="0" class="st3 st4 st5">n</tspan><tspan x="17.4" y="0" class="st3 st4 st5">t</tspan><tspan x="22" y="0" class="st3 st4 st5">h</tspan><tspan x="30.1" y="0" class="st3 st4 st5">o</tspan><tspan x="38.2" y="0" class="st3 st4 st5">n</tspan><tspan x="46.3" y="0" class="st3 st4 st5">y</tspan><tspan x="53.2" y="0" class="st3 st4 st5 st9"> </tspan><tspan x="55.6" y="0" class="st3 st4 st5">D</tspan><tspan x="64.8" y="0" class="st3 st4 st5">a</tspan><tspan x="71.8" y="0" class="st3 st4 st5">v</tspan><tspan x="78.8" y="0" class="st3 st4 st5">i</tspan><tspan x="82.2" y="0" class="st3 st4 st5">s</tspan><tspan x="89.2" y="0" class="st3 st4 st5">,</tspan><tspan x="92.7" y="0" class="st3 st4 st5"> </tspan><tspan x="97.3" y="0" class="st3 st4 st5">P</tspan><tspan x="106.6" y="0" class="st3 st4 st5">F</tspan></text>
	</g>
</g>
<g>
	<defs>
		<rect id="SVGID_31_" y="157.1" width="484.6" height="18.2"/>
	</defs>
	<clipPath id="SVGID_32_">
		<use xlink:href="#SVGID_31_"  style="overflow:visible;"/>
	</clipPath>
	<g class="st21">
		<text transform="matrix(1.0273 0 0 1 43.3269 171.8468)"><tspan x="0" y="0" class="st3 st4 st5">D</tspan><tspan x="9.3" y="0" class="st3 st4 st5">e</tspan><tspan x="16.2" y="0" class="st3 st4 st5">rr</tspan><tspan x="25.5" y="0" class="st3 st4 st5">i</tspan><tspan x="29" y="0" class="st3 st4 st5">c</tspan><tspan x="35.9" y="0" class="st3 st4 st5">k</tspan><tspan x="42.9" y="0" class="st3 st4 st5 st7"> </tspan><tspan x="48.7" y="0" class="st3 st4 st5">R</tspan><tspan x="57.9" y="0" class="st3 st4 st5">o</tspan><tspan x="66" y="0" class="st3 st4 st5">s</tspan><tspan x="73" y="0" class="st3 st4 st5">e</tspan><tspan x="79.9" y="0" class="st3 st4 st5">,</tspan><tspan x="83.4" y="0" class="st3 st4 st5"> </tspan><tspan x="88.1" y="0" class="st3 st4 st5">P</tspan><tspan x="97.3" y="0" class="st3 st4 st5">G</tspan></text>
	</g>
</g>
<g>
	<defs>
		<rect id="SVGID_33_" y="138.9" width="428.3" height="18.2"/>
	</defs>
	<clipPath id="SVGID_34_">
		<use xlink:href="#SVGID_33_"  style="overflow:visible;"/>
	</clipPath>
	<g class="st22">
		<text transform="matrix(1.0273 0 0 1 62.2302 153.6104)"><tspan x="0" y="0" class="st3 st4 st5">M</tspan><tspan x="11.6" y="0" class="st3 st4 st5">a</tspan><tspan x="18.6" y="0" class="st3 st4 st5">r</tspan><tspan x="23.2" y="0" class="st3 st4 st5">c</tspan><tspan x="30.1" y="0" class="st3 st4 st5"> </tspan><tspan x="34.8" y="0" class="st3 st4 st5">G</tspan><tspan x="45.2" y="0" class="st3 st4 st5">a</tspan><tspan x="52.2" y="0" class="st3 st4 st5">s</tspan><tspan x="59.1" y="0" class="st3 st4 st5">o</tspan><tspan x="67.2" y="0" class="st3 st4 st5">l</tspan><tspan x="70.7" y="0" class="st3 st4 st5">,</tspan><tspan x="74.2" y="0" class="st3 st4 st5"> </tspan><tspan x="78.8" y="0" class="st3 st4 st5">C</tspan></text>
	</g>
</g>
<g>
	<defs>
		<rect id="SVGID_35_" y="120.6" width="452.1" height="18.2"/>
	</defs>
	<clipPath id="SVGID_36_">
		<use xlink:href="#SVGID_35_"  style="overflow:visible;"/>
	</clipPath>
	<g class="st23">
		<text transform="matrix(1.0273 0 0 1 53.5075 135.3741)"><tspan x="0" y="0" class="st3 st4 st5">B</tspan><tspan x="9.3" y="0" class="st3 st4 st5">r</tspan><tspan x="13.9" y="0" class="st3 st4 st5">oo</tspan><tspan x="30.1" y="0" class="st3 st4 st5">k</tspan><tspan x="37.1" y="0" class="st3 st4 st5"> </tspan><tspan x="40.5" y="0" class="st3 st4 st5">L</tspan><tspan x="48.6" y="0" class="st3 st4 st5">o</tspan><tspan x="56.7" y="0" class="st3 st4 st5">p</tspan><tspan x="64.9" y="0" class="st3 st4 st5">e</tspan><tspan x="71.8" y="0" class="st3 st4 st5">z</tspan><tspan x="78.7" y="0" class="st3 st4 st5">,</tspan><tspan x="82.2" y="0" class="st3 st4 st5"> </tspan><tspan x="86.8" y="0" class="st3 st4 st5">C</tspan></text>
	</g>
</g>
<g>
	<defs>
		<rect id="SVGID_37_" y="102.4" width="441" height="18.2"/>
	</defs>
	<clipPath id="SVGID_38_">
		<use xlink:href="#SVGID_37_"  style="overflow:visible;"/>
	</clipPath>
	<g class="st24">
		<text transform="matrix(1.0273 0 0 1 57.7312 117.1368)"><tspan x="0" y="0" class="st3 st4 st5">K</tspan><tspan x="9.3" y="0" class="st3 st4 st5">e</tspan><tspan x="16.2" y="0" class="st3 st4 st5">v</tspan><tspan x="23.2" y="0" class="st3 st4 st5">i</tspan><tspan x="26.7" y="0" class="st3 st4 st5">n</tspan><tspan x="34.8" y="0" class="st3 st4 st5"> </tspan><tspan x="38.3" y="0" class="st3 st4 st5">L</tspan><tspan x="46.4" y="0" class="st3 st4 st5">o</tspan><tspan x="54.5" y="0" class="st3 st4 st5">v</tspan><tspan x="61.4" y="0" class="st3 st4 st5">e</tspan><tspan x="68.4" y="0" class="st3 st4 st5">,</tspan><tspan x="71.9" y="0" class="st3 st4 st5"> </tspan><tspan x="76.5" y="0" class="st3 st4 st5">P</tspan><tspan x="85.7" y="0" class="st3 st4 st5">F</tspan></text>
	</g>
</g>
<g>
	<defs>
		<rect id="SVGID_39_" y="84.2" width="518" height="18.2"/>
	</defs>
	<clipPath id="SVGID_40_">
		<use xlink:href="#SVGID_39_"  style="overflow:visible;"/>
	</clipPath>
	<g class="st25">
		<text transform="matrix(1.0273 0 0 1 31.82 98.8995)"><tspan x="0" y="0" class="st3 st4 st5">Ni</tspan><tspan x="13.9" y="0" class="st3 st4 st5">c</tspan><tspan x="20.9" y="0" class="st3 st4 st5">o</tspan><tspan x="29" y="0" class="st3 st4 st5">l</tspan><tspan x="32.4" y="0" class="st3 st4 st5">a</tspan><tspan x="39.4" y="0" class="st3 st4 st5">s</tspan><tspan x="46.4" y="0" class="st3 st4 st5"> </tspan><tspan x="49.8" y="0" class="st3 st4 st5">B</tspan><tspan x="59.1" y="0" class="st3 st4 st5">a</tspan><tspan x="66.1" y="0" class="st3 st4 st5">t</tspan><tspan x="70.7" y="0" class="st3 st4 st5">u</tspan><tspan x="78.8" y="0" class="st3 st4 st5">m</tspan><tspan x="90.4" y="0" class="st3 st4 st5">,</tspan><tspan x="93.9" y="0" class="st3 st4 st5"> </tspan><tspan x="98.5" y="0" class="st3 st4 st5">S</tspan><tspan x="107.8" y="0" class="st3 st4 st5">G</tspan></text>
	</g>
</g>
<g>
	<defs>
		<rect id="SVGID_41_" y="65.9" width="571.2" height="18.2"/>
	</defs>
	<clipPath id="SVGID_42_">
		<use xlink:href="#SVGID_41_"  style="overflow:visible;"/>
	</clipPath>
	<g class="st26">
		<text transform="matrix(1.0273 0 0 1 7.8835 80.6632)"><tspan x="0" y="0" class="st3 st4 st5">L</tspan><tspan x="8.1" y="0" class="st3 st4 st5">a</tspan><tspan x="15.1" y="0" class="st3 st4 st5">M</tspan><tspan x="26.7" y="0" class="st3 st4 st5">a</tspan><tspan x="33.6" y="0" class="st3 st4 st5">r</tspan><tspan x="38.3" y="0" class="st3 st4 st5">c</tspan><tspan x="45.2" y="0" class="st3 st4 st5">u</tspan><tspan x="53.3" y="0" class="st3 st4 st5">s</tspan><tspan x="60.3" y="0" class="st3 st4 st5"> </tspan><tspan x="64.9" y="0" class="st3 st4 st5">A</tspan><tspan x="74.2" y="0" class="st3 st4 st5">l</tspan><tspan x="77.6" y="0" class="st3 st4 st5">d</tspan><tspan x="85.7" y="0" class="st3 st4 st5">r</tspan><tspan x="90.4" y="0" class="st3 st4 st5">i</tspan><tspan x="93.8" y="0" class="st3 st4 st5">d</tspan><tspan x="102" y="0" class="st3 st4 st5">g</tspan><tspan x="110.1" y="0" class="st3 st4 st5">e</tspan><tspan x="117" y="0" class="st3 st4 st5">,</tspan><tspan x="120.5" y="0" class="st3 st4 st5"> </tspan><tspan x="125.1" y="0" class="st3 st4 st5">P</tspan><tspan x="134.4" y="0" class="st3 st4 st5">F</tspan></text>
	</g>
</g>
<g>
	<defs>
		<rect id="SVGID_43_" y="47.7" width="463.2" height="18.2"/>
	</defs>
	<clipPath id="SVGID_44_">
		<use xlink:href="#SVGID_43_"  style="overflow:visible;"/>
	</clipPath>
	<g class="st27">
		<text transform="matrix(1.0273 0 0 1 50.4734 62.4268)"><tspan x="0" y="0" class="st3 st4 st5">B</tspan><tspan x="9.3" y="0" class="st3 st4 st5">l</tspan><tspan x="12.7" y="0" class="st3 st4 st5">a</tspan><tspan x="19.7" y="0" class="st3 st4 st5">k</tspan><tspan x="26.6" y="0" class="st3 st4 st5">e</tspan><tspan x="33.6" y="0" class="st3 st4 st5"> </tspan><tspan x="38.2" y="0" class="st3 st4 st5">G</tspan><tspan x="48.6" y="0" class="st3 st4 st5">r</tspan><tspan x="53.3" y="0" class="st3 st4 st5">i</tspan><tspan x="56.7" y="0" class="st3 st4 st5">ff</tspan><tspan x="66" y="0" class="st3 st4 st5">in</tspan><tspan x="77.5" y="0" class="st3 st4 st5">,</tspan><tspan x="81" y="0" class="st3 st4 st5 st9"> </tspan><tspan x="83.3" y="0" class="st3 st4 st5">P</tspan><tspan x="92.6" y="0" class="st3 st4 st5">F</tspan></text>
	</g>
</g>
<g>
	<defs>
		<rect id="SVGID_45_" width="571.2" height="445.9"/>
	</defs>
	<clipPath id="SVGID_46_">
		<use xlink:href="#SVGID_45_"  style="overflow:visible;"/>
	</clipPath>
	<g class="st28">
		<text transform="matrix(1.0273 0 0 1 94.0085 27.2198)"><tspan x="0" y="0" class="st3 st4 st29 st30">T</tspan><tspan x="7" y="0" class="st3 st4 st29">o</tspan><tspan x="16.2" y="0" class="st3 st4 st29">p</tspan><tspan x="25.5" y="0" class="st3 st4 st29 st7"> </tspan><tspan x="31.3" y="0" class="st3 st4 st29">20</tspan><tspan x="49.8" y="0" class="st3 st4 st29"> </tspan><tspan x="54.4" y="0" class="st3 st4 st29">P</tspan><tspan x="64.9" y="0" class="st3 st4 st29">a</tspan><tspan x="74.1" y="0" class="st3 st4 st29">i</tspan><tspan x="77.6" y="0" class="st3 st4 st29">d</tspan><tspan x="86.9" y="0" class="st3 st4 st29 st7"> </tspan><tspan x="92.7" y="0" class="st3 st4 st29">N</tspan><tspan x="104.3" y="0" class="st3 st4 st29">B</tspan><tspan x="115.8" y="0" class="st3 st4 st29">A</tspan><tspan x="126.3" y="0" class="st3 st4 st29 st7"> </tspan><tspan x="132.1" y="0" class="st3 st4 st29">P</tspan><tspan x="142.5" y="0" class="st3 st4 st29">l</tspan><tspan x="146" y="0" class="st3 st4 st29">a</tspan><tspan x="155.2" y="0" class="st3 st4 st29">y</tspan><tspan x="163.3" y="0" class="st3 st4 st29">e</tspan><tspan x="172.6" y="0" class="st3 st4 st29">r</tspan><tspan x="178.4" y="0" class="st3 st4 st29">s</tspan><tspan x="186.5" y="0" class="st3 st4 st29">, </tspan><tspan x="195.7" y="0" class="st3 st4 st29">2016</tspan><tspan x="232.8" y="0" class="st3 st4 st29"> </tspan><tspan x="237.4" y="0" class="st3 st4 st29">SA</tspan><tspan x="258.3" y="0" class="st3 st4 st29">L</tspan><tspan x="267.5" y="0" class="st3 st4 st29">A</tspan><tspan x="277.9" y="0" class="st3 st4 st29">R</tspan><tspan x="288.4" y="0" class="st3 st4 st29">Y</tspan><tspan x="298.8" y="0" class="st3 st4 st29">(</tspan><tspan x="303.4" y="0" class="st3 st4 st29">P</tspan><tspan x="313.8" y="0" class="st3 st4 st29">e</tspan><tspan x="323.1" y="0" class="st3 st4 st29">r</tspan><tspan x="328.9" y="0" class="st3 st4 st29 st7"> </tspan><tspan x="334.7" y="0" class="st3 st4 st29 st30">Y</tspan><tspan x="342.8" y="0" class="st3 st4 st29">ea</tspan><tspan x="361.3" y="0" class="st3 st4 st29">r</tspan><tspan x="367.1" y="0" class="st3 st4 st29">)</tspan></text>
	</g>
	<rect x="0.6" y="0.6" class="st31" width="570" height="444.8"/>
</g>
</svg>
