<?xml version="1.0" encoding="utf-8"?>
<!-- Generator: Adobe Illustrator 20.1.0, SVG Export Plug-In . SVG Version: 6.00 Build 0)  -->
<svg version="1.1" id="Layer_1" xmlns="http://www.w3.org/2000/svg" xmlns:xlink="http://www.w3.org/1999/xlink" x="0px" y="0px"
	 viewBox="0 0 797.9 545.1" style="enable-background:new 0 0 797.9 545.1;" xml:space="preserve">
<style type="text/css">
	.st0{clip-path:url(#SVGID_2_);fill:#71AD46;}
	.st1{clip-path:url(#SVGID_4_);fill:none;stroke:#D9D9D8;stroke-linejoin:round;stroke-miterlimit:10;}
	.st2{clip-path:url(#SVGID_4_);}
	.st3{fill:#595A5A;}
	.st4{font-family:'HelveticaNeue';}
	.st5{font-size:23.8751px;}
	.st6{font-size:27.8543px;}
	.st7{letter-spacing:-1.2;}
</style>
<g>
	<defs>
		<rect id="SVGID_1_" x="58.6" y="81.6" width="716.9" height="405.9"/>
	</defs>
	<clipPath id="SVGID_2_">
		<use xlink:href="#SVGID_1_"  style="overflow:visible;"/>
	</clipPath>
	<path class="st0" d="M658.4,316.3h55.1v171.1h-55.1V316.3z M479.1,149.2h55.1v338.2h-55.1V149.2z M299.9,274.6h56.9v212.9h-56.9
		V274.6z M120.6,115.4h56.9v372.1h-56.9V115.4z"/>
</g>
<g>
	<defs>
		<rect id="SVGID_3_" width="797.9" height="545.1"/>
	</defs>
	<clipPath id="SVGID_4_">
		<use xlink:href="#SVGID_3_"  style="overflow:visible;"/>
	</clipPath>
	<line class="st1" x1="59.5" y1="488.4" x2="776.4" y2="488.4"/>
	<g class="st2">
		<text transform="matrix(0.8662 0 0 1 29.0211 497.2227)" class="st3 st4 st5">0</text>
	</g>
	<g class="st2">
		<text transform="matrix(0.8662 0 0 1 11.7868 456.6563)"><tspan x="0" y="0" class="st3 st4 st5">0</tspan><tspan x="13.9" y="0" class="st3 st4 st5">.</tspan><tspan x="19.9" y="0" class="st3 st4 st5">5</tspan></text>
	</g>
	<g class="st2">
		<text transform="matrix(0.8662 0 0 1 29.0211 416.0919)" class="st3 st4 st5">1</text>
	</g>
	<g class="st2">
		<text transform="matrix(0.8662 0 0 1 11.7868 375.5245)"><tspan x="0" y="0" class="st3 st4 st5">1</tspan><tspan x="13.9" y="0" class="st3 st4 st5">.</tspan><tspan x="19.9" y="0" class="st3 st4 st5">5</tspan></text>
	</g>
	<g class="st2">
		<text transform="matrix(0.8662 0 0 1 29.0211 334.9601)" class="st3 st4 st5">2</text>
	</g>
	<g class="st2">
		<text transform="matrix(0.8662 0 0 1 11.7868 294.3946)"><tspan x="0" y="0" class="st3 st4 st5">2</tspan><tspan x="13.9" y="0" class="st3 st4 st5">.</tspan><tspan x="19.9" y="0" class="st3 st4 st5">5</tspan></text>
	</g>
	<g class="st2">
		<text transform="matrix(0.8662 0 0 1 29.0211 253.8277)" class="st3 st4 st5">3</text>
	</g>
	<g class="st2">
		<text transform="matrix(0.8662 0 0 1 11.7868 213.2633)"><tspan x="0" y="0" class="st3 st4 st5">3</tspan><tspan x="13.9" y="0" class="st3 st4 st5">.</tspan><tspan x="19.9" y="0" class="st3 st4 st5">5</tspan></text>
	</g>
	<g class="st2">
		<text transform="matrix(0.8662 0 0 1 29.0211 172.6978)" class="st3 st4 st5">4</text>
	</g>
	<g class="st2">
		<text transform="matrix(0.8662 0 0 1 11.7868 132.1314)"><tspan x="0" y="0" class="st3 st4 st5">4</tspan><tspan x="13.9" y="0" class="st3 st4 st5">.</tspan><tspan x="19.9" y="0" class="st3 st4 st5">5</tspan></text>
	</g>
	<g class="st2">
		<text transform="matrix(0.8662 0 0 1 29.0211 91.567)" class="st3 st4 st5">5</text>
	</g>
	<g class="st2">
		<text transform="matrix(0.8662 0 0 1 126.6266 526.6163)"><tspan x="0" y="0" class="st3 st4 st5">N</tspan><tspan x="17.9" y="0" class="st3 st4 st5">B</tspan><tspan x="33.8" y="0" class="st3 st4 st5">A</tspan></text>
	</g>
	<g class="st2">
		<text transform="matrix(0.8662 0 0 1 305.6598 526.6163)"><tspan x="0" y="0" class="st3 st4 st5">NH</tspan><tspan x="35.8" y="0" class="st3 st4 st5">L</tspan></text>
	</g>
	<g class="st2">
		<text transform="matrix(0.8662 0 0 1 484.692 526.6163)"><tspan x="0" y="0" class="st3 st4 st5">M</tspan><tspan x="19.9" y="0" class="st3 st4 st5">L</tspan><tspan x="33.8" y="0" class="st3 st4 st5">B</tspan></text>
	</g>
	<g class="st2">
		<text transform="matrix(0.8662 0 0 1 665.4537 526.6163)"><tspan x="0" y="0" class="st3 st4 st5">N</tspan><tspan x="17.9" y="0" class="st3 st4 st5">F</tspan><tspan x="31.8" y="0" class="st3 st4 st5">L</tspan></text>
	</g>
	<g class="st2">
		<text transform="matrix(0.8662 0 0 1 207.3317 46.7555)"><tspan x="0" y="0" class="st3 st4 st6">A</tspan><tspan x="17.9" y="0" class="st3 st4 st6">v</tspan><tspan x="31.8" y="0" class="st3 st4 st6">e</tspan><tspan x="47.7" y="0" class="st3 st4 st6">r</tspan><tspan x="57.7" y="0" class="st3 st4 st6">a</tspan><tspan x="73.6" y="0" class="st3 st4 st6">g</tspan><tspan x="89.5" y="0" class="st3 st4 st6">e</tspan><tspan x="105.4" y="0" class="st3 st4 st6"> </tspan><tspan x="113.4" y="0" class="st3 st4 st6">S</tspan><tspan x="131.3" y="0" class="st3 st4 st6">a</tspan><tspan x="147.2" y="0" class="st3 st4 st6">l</tspan><tspan x="153.2" y="0" class="st3 st4 st6">a</tspan><tspan x="169.1" y="0" class="st3 st4 st6">r</tspan><tspan x="179" y="0" class="st3 st4 st6">y</tspan><tspan x="192.9" y="0" class="st3 st4 st6"> </tspan><tspan x="200.9" y="0" class="st3 st4 st6">P</tspan><tspan x="218.8" y="0" class="st3 st4 st6">e</tspan><tspan x="234.7" y="0" class="st3 st4 st6">r</tspan><tspan x="244.6" y="0" class="st3 st4 st6 st7"> </tspan><tspan x="250.6" y="0" class="st3 st4 st6">P</tspan><tspan x="268.5" y="0" class="st3 st4 st6">l</tspan><tspan x="274.5" y="0" class="st3 st4 st6">a</tspan><tspan x="290.4" y="0" class="st3 st4 st6">y</tspan><tspan x="304.4" y="0" class="st3 st4 st6">e</tspan><tspan x="320.3" y="0" class="st3 st4 st6">r</tspan><tspan x="330.2" y="0" class="st3 st4 st6">(</tspan><tspan x="338.1" y="0" class="st3 st4 st6">m</tspan><tspan x="362" y="0" class="st3 st4 st6">illi</tspan><tspan x="386" y="0" class="st3 st4 st6">o</tspan><tspan x="401.9" y="0" class="st3 st4 st6">n</tspan><tspan x="417.8" y="0" class="st3 st4 st6">s)</tspan></text>
	</g>
	<rect x="0.9" y="1" class="st1" width="796.2" height="543.2"/>
</g>
</svg>
